<?xml version="1.0" encoding="UTF-8" standalone="no"?><!DOCTYPE svg PUBLIC "-//W3C//DTD SVG 1.1//EN" "http://www.w3.org/Graphics/SVG/1.1/DTD/svg11.dtd"><svg width="100%" height="100%" viewBox="0 0 512 512" version="1.1" xmlns="http://www.w3.org/2000/svg" xmlns:xlink="http://www.w3.org/1999/xlink" xml:space="preserve" xmlns:serif="http://www.serif.com/" style="fill-rule:evenodd;clip-rule:evenodd;stroke-linejoin:round;stroke-miterlimit:2;"><path d="M242.624,41.387L221.013,25.6L247.744,25.6L256,0L264.256,25.6L290.987,25.6L269.376,41.387L277.611,67.136L256,51.2L234.389,67.136L242.624,41.387ZM269.376,486.4L277.611,512L256,496.213L234.389,512L242.624,486.4L221.013,470.613L247.744,470.613L256,444.864L264.256,470.613L290.987,470.613L269.376,486.4ZM34.987,273.067L13.376,289.003L21.611,263.403L0,248.043L26.731,248.043L34.987,222.443L43.243,248.043L70.123,248.043L48.363,263.957L56.597,289.557L34.987,273.643L34.987,273.067ZM158.869,71.104L167.104,96.704L145.493,81.067L123.883,96.853L132.117,71.253L110.507,55.467L137.237,55.467L145.493,29.867L153.749,55.467L180.48,55.467L158.869,71.104ZM56.896,136.811L65.131,111.211L73.536,136.811L99.563,136.811L77.931,152.747L86.187,178.347L64.427,162.411L42.667,178.347L50.923,152.747L29.291,136.811L56.896,136.811ZM29.291,359.253L56.896,359.253L65.131,333.653L73.536,359.253L99.563,359.253L77.931,375.189L86.187,400.789L64.427,385.003L42.667,400.789L50.923,375.189L29.291,359.253ZM132.117,456.533L110.507,440.896L137.237,440.896L145.493,415.296L153.749,440.896L180.48,440.896L158.869,456.533L167.104,482.133L145.493,466.347L123.883,482.133L132.117,456.533ZM490.389,263.957L498.624,289.557L477.013,273.643L455.104,289.557L463.36,263.957L441.6,248.043L469.333,248.043L477.589,222.443L485.824,248.043L512,248.043L490.389,263.957ZM353.131,71.104L331.52,55.467L358.251,55.467L366.507,29.867L374.763,55.467L401.493,55.467L379.883,71.104L388.117,96.704L366.507,81.067L344.896,96.853L353.131,71.253L353.131,71.104ZM438.464,136.683L446.869,111.083L455.104,136.683L481.856,136.683L460.8,152.747L469.056,178.347L447.424,162.411L425.664,178.347L433.92,152.747L412.437,136.811L438.464,136.683ZM455.104,359.253L481.856,359.253L460.8,375.189L469.056,400.789L447.424,385.003L425.664,400.789L433.92,375.189L412.437,359.253L439.189,359.253L447.573,333.653L455.829,359.253L455.104,359.253ZM401.493,440.896L379.883,456.533L388.117,482.133L366.507,466.347L344.896,482.133L353.131,456.533L331.52,440.896L358.251,440.896L366.507,415.296L374.763,440.896L401.493,440.896Z" style="fill-rule:nonzero;"/><g id="NL"><path d="M197.78,278.979L173.631,278.979L170.309,290.305L148.64,290.305L174.427,221.695L197.546,221.695L223.333,290.305L201.15,290.305L197.78,278.979ZM193.334,264.143L185.753,239.479L178.218,264.143L193.334,264.143Z" style="fill-rule:nonzero;"/><path d="M218.045,221.695L240.228,221.695L255.672,271.07L270.883,221.695L292.411,221.695L266.951,290.305L243.972,290.305L218.045,221.695Z" style="fill-rule:nonzero;"/><path d="M330.6,265.454L330.6,251.18L363.36,251.18L363.36,280.43C357.089,284.704 351.543,287.614 346.723,289.158C341.902,290.702 336.185,291.475 329.57,291.475C321.427,291.475 314.789,290.086 309.657,287.309C304.524,284.533 300.546,280.399 297.723,274.907C294.899,269.416 293.487,263.114 293.487,256C293.487,248.512 295.032,241.999 298.12,236.461C301.209,230.923 305.733,226.719 311.692,223.848C316.341,221.633 322.597,220.525 330.459,220.525C338.041,220.525 343.712,221.212 347.471,222.585C351.231,223.957 354.351,226.087 356.831,228.973C359.312,231.859 361.176,235.517 362.424,239.947L341.972,243.598C341.13,241.008 339.702,239.027 337.69,237.654C335.678,236.281 333.111,235.595 329.991,235.595C325.343,235.595 321.638,237.21 318.876,240.439C316.115,243.668 314.734,248.777 314.734,255.766C314.734,263.192 316.131,268.496 318.923,271.678C321.716,274.861 325.608,276.452 330.6,276.452C332.971,276.452 335.233,276.109 337.386,275.422C339.539,274.736 342.004,273.566 344.78,271.912L344.78,265.454L330.6,265.454Z" style="fill-rule:nonzero;"/></g></svg>