<?xml version="1.0" encoding="UTF-8" standalone="no"?><!DOCTYPE svg PUBLIC "-//W3C//DTD SVG 1.1//EN" "http://www.w3.org/Graphics/SVG/1.1/DTD/svg11.dtd"><svg width="100%" height="100%" viewBox="0 0 512 512" version="1.1" xmlns="http://www.w3.org/2000/svg" xmlns:xlink="http://www.w3.org/1999/xlink" xml:space="preserve" xmlns:serif="http://www.serif.com/" style="fill-rule:evenodd;clip-rule:evenodd;stroke-linejoin:round;stroke-miterlimit:2;"><path d="M455.829,359.253L481.856,359.253L460.8,375.189L469.056,400.789L447.424,385.003L425.664,400.789L433.92,375.189L412.437,359.253L439.189,359.253L447.573,333.653L455.829,359.253ZM242.624,41.387L221.013,25.6L247.744,25.6L256,0L264.256,25.6L290.987,25.6L269.376,41.387L277.611,67.136L256,51.2L234.389,67.136L242.624,41.387ZM269.376,486.4L277.611,512L256,496.213L234.389,512L242.624,486.4L221.013,470.613L247.744,470.613L256,444.864L264.256,470.613L290.987,470.613L269.376,486.4ZM34.987,273.067L13.376,289.003L21.611,263.403L0,248.043L26.731,248.043L34.987,222.443L43.243,248.043L70.123,248.043L48.363,263.957L56.597,289.557L34.987,273.643L34.987,273.067ZM158.869,71.104L167.104,96.704L145.493,81.067L123.883,96.853L132.117,71.253L110.507,55.467L137.237,55.467L145.493,29.867L153.749,55.467L180.48,55.467L158.869,71.104ZM56.896,136.811L65.131,111.211L73.536,136.811L99.563,136.811L77.931,152.747L86.187,178.347L64.427,162.411L42.667,178.347L50.923,152.747L29.291,136.811L56.896,136.811ZM29.291,359.253L56.896,359.253L65.131,333.653L73.536,359.253L99.563,359.253L77.931,375.189L86.187,400.789L64.427,385.003L42.667,400.789L50.923,375.189L29.291,359.253ZM132.117,456.533L110.507,440.896L137.237,440.896L145.493,415.296L153.749,440.896L180.48,440.896L158.869,456.533L167.104,482.133L145.493,466.347L123.883,482.133L132.117,456.533ZM490.389,263.957L498.624,289.557L477.013,273.643L455.104,289.557L463.36,263.957L441.6,248.043L469.333,248.043L477.589,222.443L485.824,248.043L512,248.043L490.389,263.957ZM353.131,71.104L331.52,55.467L358.251,55.467L366.507,29.867L374.763,55.467L401.493,55.467L379.883,71.104L388.117,96.704L366.507,81.067L344.896,96.853L353.131,71.253L353.131,71.104ZM438.464,136.683L446.869,111.083L455.104,136.683L481.856,136.683L460.8,152.747L469.056,178.347L447.424,162.411L425.664,178.347L433.92,152.747L412.437,136.811L438.464,136.683ZM401.493,440.896L379.883,456.533L388.117,482.133L366.507,466.347L344.896,482.133L353.131,456.533L331.52,440.896L358.251,440.896L366.507,415.296L374.763,440.896L401.493,440.896ZM384.466,243.343L384.466,259.261C384.466,276.833 370.201,291.098 352.63,291.098L156.303,291.098C138.732,291.098 124.466,276.833 124.466,259.261L124.466,243.343C124.466,225.772 138.732,211.506 156.303,211.506L352.63,211.506C370.201,211.506 384.466,225.772 384.466,243.343ZM223.104,235.099L223.104,266.962L249.967,266.962L249.967,259.746L232.971,259.746L232.971,253.465L248.294,253.465L248.294,246.966L232.971,246.966L232.971,241.902L249.489,241.902L249.489,235.099L223.104,235.099ZM155.64,241.353C150.149,241.353 145.691,245.811 145.691,251.302C145.691,256.793 150.149,261.251 155.64,261.251C161.131,261.251 165.589,256.793 165.589,251.302C165.589,245.811 161.131,241.353 155.64,241.353ZM276.005,235.099L276.005,254.535C276.005,256.301 275.524,257.665 274.56,258.628C273.596,259.591 272.267,260.072 270.572,260.072C268.862,260.072 267.525,259.584 266.562,258.606C265.598,257.629 265.116,256.272 265.116,254.535L265.116,235.099L255.292,235.099L255.292,254.083C255.292,255.646 255.597,257.442 256.205,259.469C256.582,260.729 257.281,261.952 258.303,263.14C259.324,264.327 260.451,265.243 261.682,265.887C262.914,266.531 264.446,266.962 266.279,267.179C268.112,267.397 269.804,267.505 271.354,267.505C274.035,267.505 276.331,267.151 278.244,266.441C279.62,265.934 280.935,265.055 282.189,263.802C283.442,262.55 284.362,261.087 284.949,259.415C285.536,257.742 285.829,255.965 285.829,254.083L285.829,235.099L276.005,235.099ZM384.466,326.251L384.466,342.17C384.466,359.741 370.201,374.006 352.63,374.006L156.303,374.006C138.732,374.006 124.466,359.741 124.466,342.17L124.466,326.251C124.466,308.68 138.732,294.415 156.303,294.415L352.63,294.415C370.201,294.415 384.466,308.68 384.466,326.251ZM325.147,318.279L325.147,350.142L339.774,350.142C341.527,350.142 343.483,349.852 345.642,349.272C347.222,348.852 348.7,348.008 350.076,346.74C351.453,345.472 352.529,343.9 353.304,342.024C354.079,340.148 354.466,337.507 354.466,334.102C354.466,331.928 354.206,329.871 353.684,327.929C353.162,325.988 352.322,324.285 351.163,322.822C350.004,321.358 348.537,320.235 346.762,319.453C344.987,318.67 342.657,318.279 339.774,318.279L325.147,318.279ZM334.992,325.495L337.448,325.495C339.999,325.495 341.824,326.118 342.926,327.364C344.027,328.61 344.577,330.921 344.577,334.297C344.577,336.848 344.331,338.691 343.838,339.829C343.346,340.966 342.665,341.763 341.795,342.22C340.926,342.676 339.463,342.904 337.405,342.904L334.992,342.904L334.992,325.495ZM292.849,318.279L292.849,350.142L319.713,350.142L319.713,342.926L302.717,342.926L302.717,336.645L318.04,336.645L318.04,330.146L302.717,330.146L302.717,325.082L319.235,325.082L319.235,318.279L292.849,318.279ZM258.487,318.279L258.487,326.147L268.529,326.147L268.529,350.142L278.374,350.142L278.374,326.147L288.416,326.147L288.416,318.279L258.487,318.279ZM154.466,318.279L154.466,350.142L164.312,350.142L164.312,337.253L175.071,337.253L175.071,350.142L184.96,350.142L184.96,318.279L175.071,318.279L175.071,329.429L164.312,329.429L164.312,318.279L154.466,318.279ZM190.263,334.232C190.263,337.956 190.995,341.057 192.458,343.535C193.922,346.012 195.831,347.823 198.185,348.968C200.54,350.113 203.514,350.685 207.107,350.685C210.643,350.685 213.595,350.022 215.964,348.696C218.333,347.371 220.144,345.516 221.398,343.132C222.651,340.749 223.278,337.695 223.278,333.971C223.278,328.842 221.843,324.854 218.974,322.007C216.105,319.159 212.019,317.736 206.716,317.736C201.543,317.736 197.508,319.185 194.61,322.083C191.712,324.981 190.263,329.03 190.263,334.232ZM200.109,334.276C200.109,331.03 200.71,328.704 201.913,327.299C203.115,325.893 204.709,325.191 206.694,325.191C208.766,325.191 210.407,325.883 211.617,327.266C212.827,328.65 213.432,330.842 213.432,333.841C213.432,337.405 212.852,339.876 211.693,341.252C210.534,342.629 208.897,343.317 206.781,343.317C204.724,343.317 203.097,342.614 201.902,341.209C200.706,339.803 200.109,337.492 200.109,334.276ZM226.864,339.601C227.139,342.817 228.32,345.469 230.407,347.555C232.493,349.642 236.246,350.685 241.665,350.685C244.751,350.685 247.309,350.24 249.337,349.348C251.366,348.457 252.945,347.15 254.075,345.425C255.205,343.701 255.771,341.817 255.771,339.774C255.771,338.036 255.347,336.464 254.499,335.058C253.651,333.653 252.297,332.475 250.435,331.526C248.573,330.577 245.49,329.639 241.187,328.712C239.448,328.349 238.347,327.958 237.883,327.538C237.405,327.132 237.166,326.676 237.166,326.169C237.166,325.473 237.456,324.883 238.035,324.397C238.615,323.912 239.477,323.669 240.622,323.669C242.013,323.669 243.103,323.995 243.893,324.647C244.682,325.299 245.2,326.343 245.447,327.777L254.727,327.234C254.322,323.93 253.05,321.521 250.913,320.007C248.776,318.493 245.671,317.736 241.6,317.736C238.282,317.736 235.67,318.152 233.764,318.985C231.859,319.819 230.432,320.963 229.483,322.42C228.534,323.876 228.059,325.423 228.059,327.06C228.059,329.552 228.987,331.602 230.841,333.211C232.681,334.819 235.76,336.109 240.078,337.079C242.715,337.659 244.396,338.275 245.121,338.927C245.845,339.579 246.207,340.318 246.207,341.144C246.207,342.013 245.827,342.777 245.066,343.437C244.306,344.096 243.223,344.426 241.817,344.426C239.933,344.426 238.484,343.781 237.47,342.491C236.847,341.694 236.434,340.535 236.231,339.014L226.864,339.601ZM129.466,139.001L178.371,139.001L178.371,151.609L147.755,151.609L147.755,160.996L176.155,160.996L176.155,173.04L147.755,173.04L147.755,184.682L179.257,184.682L179.257,198.056L129.466,198.056L129.466,139.001ZM227.517,139.001L245.725,139.001L245.725,174.185C245.725,177.674 245.181,180.968 244.093,184.068C243.006,187.168 241.3,189.878 238.977,192.2C236.654,194.522 234.217,196.152 231.666,197.091C228.121,198.406 223.864,199.064 218.896,199.064C216.023,199.064 212.887,198.862 209.49,198.459C206.093,198.057 203.253,197.259 200.97,196.064C198.687,194.87 196.599,193.173 194.706,190.972C192.812,188.771 191.517,186.503 190.818,184.169C189.69,180.411 189.126,177.084 189.126,174.185L189.126,139.001L207.335,139.001L207.335,175.023C207.335,178.243 208.228,180.759 210.014,182.57C211.799,184.381 214.277,185.287 217.446,185.287C220.588,185.287 223.052,184.394 224.838,182.61C226.624,180.826 227.517,178.297 227.517,175.023L227.517,139.001ZM258.052,198.056L258.052,139.001L288.466,139.001C294.106,139.001 298.416,139.484 301.397,140.451C304.378,141.418 306.781,143.21 308.608,145.829C310.434,148.447 311.347,151.636 311.347,155.396C311.347,158.673 310.649,161.499 309.252,163.876C307.856,166.253 305.936,168.179 303.492,169.657C301.934,170.596 299.799,171.375 297.087,171.993C299.262,172.719 300.846,173.444 301.84,174.17C302.511,174.653 303.485,175.688 304.761,177.274C306.036,178.859 306.889,180.082 307.319,180.942L316.141,198.056L295.515,198.056L285.767,180.009C284.531,177.673 283.43,176.156 282.464,175.457C281.148,174.544 279.657,174.088 277.992,174.088L276.381,174.088L276.381,198.056L258.052,198.056ZM276.381,162.929L284.075,162.929C284.907,162.929 286.519,162.661 288.909,162.124C290.117,161.882 291.104,161.264 291.87,160.27C292.635,159.277 293.018,158.135 293.018,156.846C293.018,154.94 292.414,153.476 291.205,152.455C289.997,151.435 287.727,150.925 284.397,150.925L276.381,150.925L276.381,162.929ZM318.276,168.569C318.276,158.928 320.961,151.422 326.332,146.05C331.704,140.679 339.183,137.994 348.77,137.994C358.6,137.994 366.173,140.632 371.49,145.909C376.808,151.187 379.466,158.579 379.466,168.085C379.466,174.987 378.305,180.647 375.982,185.065C373.659,189.483 370.302,192.92 365.911,195.378C361.52,197.835 356.048,199.064 349.495,199.064C342.835,199.064 337.323,198.003 332.959,195.881C328.595,193.76 325.057,190.403 322.344,185.81C319.632,181.218 318.276,175.471 318.276,168.569ZM336.524,168.649C336.524,174.611 337.632,178.895 339.848,181.5C342.063,184.105 345.078,185.407 348.891,185.407C352.812,185.407 355.847,184.132 357.995,181.58C360.144,179.029 361.218,174.45 361.218,167.844C361.218,162.285 360.097,158.223 357.854,155.658C355.612,153.093 352.57,151.811 348.73,151.811C345.051,151.811 342.097,153.113 339.868,155.718C337.639,158.323 336.524,162.634 336.524,168.649Z"/></svg>