<?xml version="1.0" encoding="UTF-8" standalone="no"?><!DOCTYPE svg PUBLIC "-//W3C//DTD SVG 1.1//EN" "http://www.w3.org/Graphics/SVG/1.1/DTD/svg11.dtd"><svg width="100%" height="100%" viewBox="0 0 512 512" version="1.1" xmlns="http://www.w3.org/2000/svg" xmlns:xlink="http://www.w3.org/1999/xlink" xml:space="preserve" xmlns:serif="http://www.serif.com/" style="fill-rule:evenodd;clip-rule:evenodd;stroke-linejoin:round;stroke-miterlimit:2;"><path d="M256,512C115.563,512 0,396.437 0,256C-0,115.563 115.563,0 256,0C396.437,0 512,115.563 512,256C512,396.437 396.437,512 256,512ZM87.979,108.513C53.199,148.034 32,199.736 32,256C32,378.883 133.117,480 256,480C312.264,480 363.966,458.801 403.487,424.021L87.979,108.513ZM424.655,402.763C459.059,363.335 480,311.921 480,256C480,133.117 378.883,32 256,32C200.079,32 148.665,52.941 109.237,87.345L424.655,402.763Z"/><path d="M183.161,301.599C167.267,279.911 158.695,253.711 158.695,226.823C158.695,157.424 215.801,100.318 285.199,100.318C354.598,100.318 411.704,157.424 411.704,226.823C411.704,296.221 354.598,353.327 285.199,353.327C258.28,353.327 232.051,344.735 210.349,328.808L210.369,328.808C209.798,329.586 209.162,330.332 208.462,331.046L133.532,405.975C129.882,409.628 124.926,411.682 119.762,411.682C109.084,411.682 100.296,402.895 100.296,392.216C100.296,387.057 102.347,382.105 105.993,378.456L180.923,303.526C181.618,302.822 182.366,302.171 183.161,301.58L183.161,301.599ZM178.139,226.787C178.139,285.508 226.46,333.829 285.182,333.829C343.903,333.829 392.224,285.508 392.224,226.787C392.224,168.065 343.903,119.744 285.182,119.744C226.46,119.744 178.139,168.065 178.139,226.787" style="fill-rule:nonzero;"/></svg>