<?xml version="1.0" encoding="UTF-8" standalone="no"?><!DOCTYPE svg PUBLIC "-//W3C//DTD SVG 1.1//EN" "http://www.w3.org/Graphics/SVG/1.1/DTD/svg11.dtd"><svg width="100%" height="100%" viewBox="0 0 512 512" version="1.1" xmlns="http://www.w3.org/2000/svg" xmlns:xlink="http://www.w3.org/1999/xlink" xml:space="preserve" xmlns:serif="http://www.serif.com/" style="fill-rule:evenodd;clip-rule:evenodd;stroke-linejoin:round;stroke-miterlimit:2;"><path d="M242.624,41.387L221.013,25.6L247.744,25.6L256,0L264.256,25.6L290.987,25.6L269.376,41.387L277.611,67.136L256,51.2L234.389,67.136L242.624,41.387ZM269.376,486.4L277.611,512L256,496.213L234.389,512L242.624,486.4L221.013,470.613L247.744,470.613L256,444.864L264.256,470.613L290.987,470.613L269.376,486.4ZM34.987,273.067L13.376,289.003L21.611,263.403L0,248.043L26.731,248.043L34.987,222.443L43.243,248.043L70.123,248.043L48.363,263.957L56.597,289.557L34.987,273.643L34.987,273.067ZM158.869,71.104L167.104,96.704L145.493,81.067L123.883,96.853L132.117,71.253L110.507,55.467L137.237,55.467L145.493,29.867L153.749,55.467L180.48,55.467L158.869,71.104ZM56.896,136.811L65.131,111.211L73.536,136.811L99.563,136.811L77.931,152.747L86.187,178.347L64.427,162.411L42.667,178.347L50.923,152.747L29.291,136.811L56.896,136.811ZM29.291,359.253L56.896,359.253L65.131,333.653L73.536,359.253L99.563,359.253L77.931,375.189L86.187,400.789L64.427,385.003L42.667,400.789L50.923,375.189L29.291,359.253ZM132.117,456.533L110.507,440.896L137.237,440.896L145.493,415.296L153.749,440.896L180.48,440.896L158.869,456.533L167.104,482.133L145.493,466.347L123.883,482.133L132.117,456.533ZM490.389,263.957L498.624,289.557L477.013,273.643L455.104,289.557L463.36,263.957L441.6,248.043L469.333,248.043L477.589,222.443L485.824,248.043L512,248.043L490.389,263.957ZM353.131,71.104L331.52,55.467L358.251,55.467L366.507,29.867L374.763,55.467L401.493,55.467L379.883,71.104L388.117,96.704L366.507,81.067L344.896,96.853L353.131,71.253L353.131,71.104ZM438.464,136.683L446.869,111.083L455.104,136.683L481.856,136.683L460.8,152.747L469.056,178.347L447.424,162.411L425.664,178.347L433.92,152.747L412.437,136.811L438.464,136.683ZM455.104,359.253L481.856,359.253L460.8,375.189L469.056,400.789L447.424,385.003L425.664,400.789L433.92,375.189L412.437,359.253L439.189,359.253L447.573,333.653L455.829,359.253L455.104,359.253ZM401.493,440.896L379.883,456.533L388.117,482.133L366.507,466.347L344.896,482.133L353.131,456.533L331.52,440.896L358.251,440.896L366.507,415.296L374.763,440.896L401.493,440.896Z" style="fill-rule:nonzero;"/><g id="SI"><path d="M109,267.955L129.776,266.653C130.226,270.028 131.142,272.598 132.524,274.366C134.773,277.226 137.987,278.656 142.165,278.656C145.282,278.656 147.684,277.925 149.371,276.463C151.059,275.001 151.902,273.305 151.902,271.377C151.902,269.545 151.099,267.907 149.492,266.46C147.885,265.014 144.157,263.648 138.308,262.363C128.732,260.21 121.903,257.35 117.821,253.783C113.708,250.215 111.651,245.668 111.651,240.141C111.651,236.509 112.704,233.079 114.809,229.849C116.914,226.619 120.079,224.081 124.305,222.233C128.531,220.385 134.323,219.461 141.683,219.461C150.713,219.461 157.598,221.14 162.338,224.498C167.079,227.857 169.899,233.199 170.798,240.526L150.215,241.731C149.669,238.55 148.52,236.236 146.768,234.79C145.017,233.344 142.599,232.621 139.514,232.621C136.975,232.621 135.063,233.159 133.777,234.236C132.492,235.312 131.849,236.622 131.849,238.164C131.849,239.289 132.379,240.301 133.44,241.201C134.468,242.133 136.91,243.001 140.767,243.804C150.311,245.861 157.148,247.942 161.278,250.047C165.407,252.152 168.412,254.763 170.292,257.88C172.172,260.997 173.112,264.484 173.112,268.34C173.112,272.872 171.859,277.049 169.352,280.874C166.846,284.698 163.343,287.598 158.844,289.575C154.344,291.551 148.672,292.539 141.827,292.539C129.808,292.539 121.485,290.225 116.857,285.598C112.23,280.97 109.611,275.089 109,267.955Z" style="fill-rule:nonzero;"/><path d="M230.09,220.666L251.879,220.666L251.879,262.769C251.879,266.944 251.228,270.886 249.926,274.595C248.625,278.304 246.584,281.548 243.804,284.326C241.024,287.104 238.108,289.055 235.055,290.179C230.813,291.752 225.719,292.539 219.774,292.539C216.336,292.539 212.584,292.298 208.518,291.816C204.453,291.334 201.055,290.379 198.323,288.95C195.592,287.521 193.093,285.49 190.827,282.857C188.562,280.223 187.011,277.509 186.176,274.715C184.826,270.219 184.151,266.237 184.151,262.769L184.151,220.666L205.939,220.666L205.939,263.771C205.939,267.625 207.008,270.635 209.145,272.802C211.282,274.97 214.247,276.053 218.039,276.053C221.799,276.053 224.747,274.986 226.884,272.851C229.021,270.715 230.09,267.689 230.09,263.771L230.09,220.666Z" style="fill-rule:nonzero;"/><path d="M259.35,220.666L282.199,220.666L298.107,271.522L313.773,220.666L335.947,220.666L309.724,291.334L286.056,291.334L259.35,220.666Z" style="fill-rule:nonzero;"/><path d="M343.033,220.666L379.332,220.666C387.237,220.666 393.158,222.546 397.095,226.306C401.032,230.066 403,235.417 403,242.358C403,249.492 400.855,255.068 396.565,259.085C392.274,263.102 385.727,265.111 376.921,265.111L364.967,265.111L364.967,291.334L343.033,291.334L343.033,220.666ZM364.967,250.794L370.317,250.794C374.527,250.794 377.484,250.063 379.187,248.601C380.89,247.138 381.742,245.266 381.742,242.985C381.742,240.767 381.003,238.887 379.524,237.345C378.046,235.802 375.266,235.031 371.185,235.031L364.967,235.031L364.967,250.794Z" style="fill-rule:nonzero;"/></g></svg>