<?xml version="1.0" encoding="UTF-8" standalone="no"?><!DOCTYPE svg PUBLIC "-//W3C//DTD SVG 1.1//EN" "http://www.w3.org/Graphics/SVG/1.1/DTD/svg11.dtd"><svg width="512px" height="512px" version="1.1" xmlns="http://www.w3.org/2000/svg" xmlns:xlink="http://www.w3.org/1999/xlink" xml:space="preserve" xmlns:serif="http://www.serif.com/" style="fill-rule:evenodd;clip-rule:evenodd;stroke-linejoin:round;stroke-miterlimit:2;"><path d="M242.624,41.387L221.013,25.6L247.744,25.6L256,0L264.256,25.6L290.987,25.6L269.376,41.387L277.611,67.136L256,51.2L234.389,67.136L242.624,41.387ZM269.376,486.4L277.611,512L256,496.213L234.389,512L242.624,486.4L221.013,470.613L247.744,470.613L256,444.864L264.256,470.613L290.987,470.613L269.376,486.4ZM34.987,273.067L13.376,289.003L21.611,263.403L0,248.043L26.731,248.043L34.987,222.443L43.243,248.043L70.123,248.043L48.363,263.957L56.597,289.557L34.987,273.643L34.987,273.067ZM158.869,71.104L167.104,96.704L145.493,81.067L123.883,96.853L132.117,71.253L110.507,55.467L137.237,55.467L145.493,29.867L153.749,55.467L180.48,55.467L158.869,71.104ZM56.896,136.811L65.131,111.211L73.536,136.811L99.563,136.811L77.931,152.747L86.187,178.347L64.427,162.411L42.667,178.347L50.923,152.747L29.291,136.811L56.896,136.811ZM29.291,359.253L56.896,359.253L65.131,333.653L73.536,359.253L99.563,359.253L77.931,375.189L86.187,400.789L64.427,385.003L42.667,400.789L50.923,375.189L29.291,359.253ZM132.117,456.533L110.507,440.896L137.237,440.896L145.493,415.296L153.749,440.896L180.48,440.896L158.869,456.533L167.104,482.133L145.493,466.347L123.883,482.133L132.117,456.533ZM490.389,263.957L498.624,289.557L477.013,273.643L455.104,289.557L463.36,263.957L441.6,248.043L469.333,248.043L477.589,222.443L485.824,248.043L512,248.043L490.389,263.957ZM353.131,71.104L331.52,55.467L358.251,55.467L366.507,29.867L374.763,55.467L401.493,55.467L379.883,71.104L388.117,96.704L366.507,81.067L344.896,96.853L353.131,71.253L353.131,71.104ZM438.464,136.683L446.869,111.083L455.104,136.683L481.856,136.683L460.8,152.747L469.056,178.347L447.424,162.411L425.664,178.347L433.92,152.747L412.437,136.811L438.464,136.683ZM455.104,359.253L481.856,359.253L460.8,375.189L469.056,400.789L447.424,385.003L425.664,400.789L433.92,375.189L412.437,359.253L439.189,359.253L447.573,333.653L455.829,359.253L455.104,359.253ZM401.493,440.896L379.883,456.533L388.117,482.133L366.507,466.347L344.896,482.133L353.131,456.533L331.52,440.896L358.251,440.896L366.507,415.296L374.763,440.896L401.493,440.896Z" style="fill-rule:nonzero;"/><g id="ES"><path d="M109,291.386L109,220.614L145.448,220.614C152.207,220.614 157.372,221.193 160.945,222.352C164.517,223.51 167.398,225.659 169.586,228.797C171.775,231.934 172.869,235.756 172.869,240.262C172.869,244.189 172.032,247.576 170.359,250.424C168.685,253.272 166.384,255.582 163.455,257.352C161.589,258.478 159.03,259.411 155.779,260.152C158.386,261.021 160.285,261.891 161.476,262.76C162.28,263.34 163.447,264.58 164.976,266.48C166.505,268.38 167.526,269.845 168.041,270.876L178.614,291.386L153.897,291.386L142.214,269.759C140.733,266.959 139.414,265.14 138.255,264.303C136.678,263.209 134.892,262.662 132.897,262.662L130.966,262.662L130.966,291.386L109,291.386ZM130.966,249.29L140.186,249.29C141.184,249.29 143.115,248.968 145.979,248.324C147.428,248.034 148.61,247.294 149.528,246.103C150.445,244.913 150.903,243.545 150.903,242C150.903,239.715 150.179,237.961 148.731,236.738C147.283,235.515 144.563,234.903 140.572,234.903L130.966,234.903L130.966,249.29Z" style="fill-rule:nonzero;"/><path d="M219.407,265.752L219.407,251.028L253.2,251.028L253.2,281.2C246.731,285.609 241.01,288.61 236.038,290.203C231.066,291.797 225.168,292.593 218.345,292.593C209.945,292.593 203.098,291.161 197.803,288.297C192.509,285.432 188.406,281.168 185.493,275.503C182.58,269.839 181.124,263.338 181.124,256C181.124,248.276 182.717,241.557 185.903,235.845C189.09,230.132 193.756,225.795 199.903,222.834C204.699,220.549 211.152,219.407 219.262,219.407C227.083,219.407 232.932,220.115 236.81,221.531C240.689,222.947 243.907,225.144 246.466,228.121C249.024,231.098 250.947,234.871 252.234,239.441L231.138,243.207C230.269,240.536 228.797,238.492 226.721,237.076C224.645,235.66 221.998,234.952 218.779,234.952C213.984,234.952 210.162,236.617 207.314,239.948C204.466,243.279 203.041,248.549 203.041,255.759C203.041,263.418 204.482,268.89 207.362,272.172C210.243,275.455 214.257,277.097 219.407,277.097C221.853,277.097 224.186,276.743 226.407,276.034C228.628,275.326 231.17,274.12 234.034,272.414L234.034,265.752L219.407,265.752Z" style="fill-rule:nonzero;"/><path d="M266.09,220.614L302.441,220.614C310.359,220.614 316.289,222.497 320.231,226.262C324.174,230.028 326.145,235.386 326.145,242.338C326.145,249.483 323.997,255.067 319.7,259.09C315.403,263.113 308.846,265.124 300.028,265.124L288.055,265.124L288.055,291.386L266.09,291.386L266.09,220.614ZM288.055,250.786L293.414,250.786C297.63,250.786 300.591,250.054 302.297,248.59C304.002,247.125 304.855,245.251 304.855,242.966C304.855,240.745 304.115,238.862 302.634,237.317C301.154,235.772 298.37,235 294.283,235L288.055,235L288.055,250.786Z" style="fill-rule:nonzero;"/><path d="M337.876,220.614L370.366,220.614C376.77,220.614 381.944,221.483 385.886,223.221C389.829,224.959 393.087,227.453 395.662,230.703C398.237,233.954 400.103,237.736 401.262,242.048C402.421,246.361 403,250.931 403,255.759C403,263.322 402.139,269.187 400.417,273.355C398.695,277.523 396.306,281.015 393.248,283.831C390.191,286.647 386.908,288.522 383.4,289.455C378.605,290.743 374.26,291.386 370.366,291.386L337.876,291.386L337.876,220.614ZM359.745,236.641L359.745,275.31L365.103,275.31C369.674,275.31 372.924,274.803 374.855,273.79C376.786,272.776 378.299,271.006 379.393,268.479C380.487,265.953 381.034,261.857 381.034,256.193C381.034,248.694 379.811,243.561 377.366,240.793C374.92,238.025 370.864,236.641 365.2,236.641L359.745,236.641Z" style="fill-rule:nonzero;"/></g></svg>