<?xml version="1.0" encoding="UTF-8" standalone="no"?><!DOCTYPE svg PUBLIC "-//W3C//DTD SVG 1.1//EN" "http://www.w3.org/Graphics/SVG/1.1/DTD/svg11.dtd"><svg width="100%" height="100%" viewBox="0 0 512 512" version="1.1" xmlns="http://www.w3.org/2000/svg" xmlns:xlink="http://www.w3.org/1999/xlink" xml:space="preserve" xmlns:serif="http://www.serif.com/" style="fill-rule:evenodd;clip-rule:evenodd;stroke-linejoin:round;stroke-miterlimit:2;"><path d="M455.829,359.253L481.856,359.253L460.8,375.189L469.056,400.789L447.424,385.003L425.664,400.789L433.92,375.189L412.437,359.253L439.189,359.253L447.573,333.653L455.829,359.253ZM242.624,41.387L221.013,25.6L247.744,25.6L256,0L264.256,25.6L290.987,25.6L269.376,41.387L277.611,67.136L256,51.2L234.389,67.136L242.624,41.387ZM269.376,486.4L277.611,512L256,496.213L234.389,512L242.624,486.4L221.013,470.613L247.744,470.613L256,444.864L264.256,470.613L290.987,470.613L269.376,486.4ZM34.987,273.067L13.376,289.003L21.611,263.403L0,248.043L26.731,248.043L34.987,222.443L43.243,248.043L70.123,248.043L48.363,263.957L56.597,289.557L34.987,273.643L34.987,273.067ZM158.869,71.104L167.104,96.704L145.493,81.067L123.883,96.853L132.117,71.253L110.507,55.467L137.237,55.467L145.493,29.867L153.749,55.467L180.48,55.467L158.869,71.104ZM56.896,136.811L65.131,111.211L73.536,136.811L99.563,136.811L77.931,152.747L86.187,178.347L64.427,162.411L42.667,178.347L50.923,152.747L29.291,136.811L56.896,136.811ZM29.291,359.253L56.896,359.253L65.131,333.653L73.536,359.253L99.563,359.253L77.931,375.189L86.187,400.789L64.427,385.003L42.667,400.789L50.923,375.189L29.291,359.253ZM132.117,456.533L110.507,440.896L137.237,440.896L145.493,415.296L153.749,440.896L180.48,440.896L158.869,456.533L167.104,482.133L145.493,466.347L123.883,482.133L132.117,456.533ZM490.389,263.957L498.624,289.557L477.013,273.643L455.104,289.557L463.36,263.957L441.6,248.043L469.333,248.043L477.589,222.443L485.824,248.043L512,248.043L490.389,263.957ZM353.131,71.104L331.52,55.467L358.251,55.467L366.507,29.867L374.763,55.467L401.493,55.467L379.883,71.104L388.117,96.704L366.507,81.067L344.896,96.853L353.131,71.253L353.131,71.104ZM438.464,136.683L446.869,111.083L455.104,136.683L481.856,136.683L460.8,152.747L469.056,178.347L447.424,162.411L425.664,178.347L433.92,152.747L412.437,136.811L438.464,136.683ZM401.493,440.896L379.883,456.533L388.117,482.133L366.507,466.347L344.896,482.133L353.131,456.533L331.52,440.896L358.251,440.896L366.507,415.296L374.763,440.896L401.493,440.896ZM158.5,158.5L353.5,158.5C371.329,158.5 386,173.171 386,191L386,207.25C386,225.079 371.329,239.75 353.5,239.75L337.25,239.75L337.25,272.25L353.5,272.25C371.329,272.25 386,286.921 386,304.75L386,321C386,338.829 371.329,353.5 353.5,353.5L158.5,353.5C140.671,353.5 126,338.829 126,321L126,304.75C126,286.921 140.671,272.25 158.5,272.25L174.75,272.25L174.75,239.75L158.5,239.75C140.671,239.75 126,225.079 126,207.25L126,191C126,173.171 140.671,158.5 158.5,158.5ZM231.51,184.549L231.51,202.014C231.51,203.601 231.078,204.827 230.212,205.693C229.346,206.558 228.151,206.99 226.628,206.99C225.091,206.99 223.89,206.551 223.024,205.673C222.158,204.795 221.725,203.575 221.725,202.014L221.725,184.549L212.897,184.549L212.897,201.608C212.897,203.013 213.171,204.627 213.717,206.448C214.056,207.58 214.684,208.68 215.602,209.747C216.52,210.814 217.533,211.637 218.639,212.216C219.746,212.795 221.123,213.182 222.77,213.377C224.417,213.572 225.938,213.67 227.331,213.67C229.74,213.67 231.803,213.351 233.522,212.714C234.759,212.258 235.941,211.468 237.067,210.342C238.193,209.217 239.02,207.902 239.548,206.399C240.075,204.897 240.339,203.299 240.339,201.608L240.339,184.549L231.51,184.549ZM166.625,207.25C171.082,207.25 174.75,203.582 174.75,199.125C174.75,194.668 171.082,191 166.625,191C162.168,191 158.5,194.668 158.5,199.125C158.5,203.582 162.168,207.25 166.625,207.25ZM246.315,213.182L255.202,213.182L255.202,201.561L255.983,201.561C256.79,201.561 257.513,201.782 258.151,202.225C258.62,202.563 259.154,203.299 259.753,204.432L264.479,213.182L274.479,213.182L270.202,204.884C269.994,204.467 269.58,203.874 268.962,203.105C268.343,202.337 267.871,201.835 267.546,201.6C267.064,201.249 266.296,200.897 265.241,200.545C266.556,200.245 267.591,199.868 268.346,199.412C269.531,198.696 270.462,197.762 271.139,196.609C271.816,195.457 272.155,194.087 272.155,192.498C272.155,190.675 271.712,189.129 270.827,187.859C269.941,186.59 268.776,185.721 267.331,185.252C265.885,184.783 263.796,184.549 261.061,184.549L246.315,184.549L246.315,213.182ZM255.202,196.15L255.202,190.33L259.089,190.33C260.703,190.33 261.803,190.578 262.389,191.072C262.975,191.567 263.268,192.277 263.268,193.201C263.268,193.826 263.083,194.38 262.712,194.861C262.341,195.343 261.862,195.643 261.276,195.76C260.117,196.02 259.336,196.15 258.932,196.15L255.202,196.15ZM308.327,297.591L308.327,326.224L332.467,326.224L332.467,319.74L317.194,319.74L317.194,314.095L330.964,314.095L330.964,308.255L317.194,308.255L317.194,303.705L332.038,303.705L332.038,297.591L308.327,297.591ZM249.03,316.751C249.277,319.642 250.339,322.025 252.214,323.9C254.089,325.775 257.461,326.712 262.331,326.712C265.104,326.712 267.402,326.312 269.225,325.511C271.048,324.71 272.467,323.535 273.483,321.986C274.499,320.436 275.007,318.744 275.007,316.908C275.007,315.345 274.626,313.932 273.864,312.669C273.102,311.406 271.885,310.348 270.212,309.496C268.538,308.643 265.768,307.8 261.901,306.966C260.339,306.641 259.349,306.289 258.932,305.912C258.503,305.547 258.288,305.137 258.288,304.681C258.288,304.056 258.548,303.526 259.069,303.089C259.59,302.653 260.365,302.435 261.393,302.435C262.643,302.435 263.623,302.728 264.333,303.314C265.042,303.9 265.508,304.837 265.729,306.126L274.069,305.638C273.704,302.669 272.562,300.505 270.641,299.144C268.721,297.783 265.931,297.103 262.272,297.103C259.29,297.103 256.943,297.477 255.231,298.226C253.519,298.975 252.236,300.003 251.384,301.312C250.531,302.621 250.104,304.011 250.104,305.482C250.104,307.722 250.938,309.564 252.604,311.009C254.258,312.455 257.025,313.613 260.905,314.486C263.275,315.007 264.785,315.56 265.436,316.146C266.087,316.732 266.413,317.396 266.413,318.138C266.413,318.919 266.071,319.606 265.387,320.199C264.704,320.791 263.731,321.087 262.467,321.087C260.775,321.087 259.473,320.508 258.561,319.349C258.001,318.633 257.63,317.591 257.448,316.224L249.03,316.751ZM275.514,198.885C275.514,202.231 276.172,205.018 277.487,207.244C278.802,209.471 280.518,211.098 282.634,212.127C284.749,213.156 287.422,213.67 290.651,213.67C293.828,213.67 296.481,213.074 298.61,211.883C300.739,210.691 302.367,209.025 303.493,206.883C304.619,204.741 305.182,201.997 305.182,198.65C305.182,194.041 303.893,190.457 301.315,187.898C298.737,185.34 295.065,184.061 290.3,184.061C285.651,184.061 282.025,185.363 279.421,187.967C276.816,190.571 275.514,194.21 275.514,198.885ZM284.362,198.924C284.362,196.007 284.902,193.917 285.983,192.654C287.064,191.391 288.496,190.76 290.28,190.76C292.142,190.76 293.617,191.382 294.704,192.625C295.791,193.869 296.335,195.838 296.335,198.533C296.335,201.736 295.814,203.956 294.772,205.193C293.731,206.43 292.259,207.049 290.358,207.049C288.509,207.049 287.048,206.417 285.973,205.154C284.899,203.891 284.362,201.815 284.362,198.924ZM183.971,184.549L183.971,213.182L208.112,213.182L208.112,206.697L192.839,206.697L192.839,201.053L206.608,201.053L206.608,195.213L192.839,195.213L192.839,190.662L207.682,190.662L207.682,184.549L183.971,184.549ZM183.971,297.591L183.971,326.224L192.819,326.224L192.819,314.642L202.487,314.642L202.487,326.224L211.374,326.224L211.374,297.591L202.487,297.591L202.487,307.611L192.819,307.611L192.819,297.591L183.971,297.591ZM277.448,297.591L277.448,304.662L286.471,304.662L286.471,326.224L295.319,326.224L295.319,304.662L304.342,304.662L304.342,297.591L277.448,297.591ZM337.35,297.591L337.35,326.224L350.495,326.224C352.07,326.224 353.828,325.964 355.768,325.443C357.188,325.065 358.516,324.307 359.753,323.167C360.99,322.028 361.956,320.615 362.653,318.929C363.35,317.243 363.698,314.87 363.698,311.81C363.698,309.857 363.464,308.008 362.995,306.263C362.526,304.518 361.771,302.988 360.729,301.673C359.688,300.358 358.369,299.349 356.774,298.646C355.179,297.943 353.086,297.591 350.495,297.591L337.35,297.591ZM346.198,304.076L348.405,304.076C350.697,304.076 352.337,304.636 353.327,305.755C354.316,306.875 354.811,308.952 354.811,311.986C354.811,314.278 354.59,315.934 354.147,316.957C353.704,317.979 353.092,318.695 352.311,319.105C351.53,319.515 350.215,319.72 348.366,319.72L346.198,319.72L346.198,304.076ZM166.625,321C171.082,321 174.75,317.332 174.75,312.875C174.75,308.418 171.082,304.75 166.625,304.75C162.168,304.75 158.5,308.418 158.5,312.875C158.5,317.332 162.168,321 166.625,321ZM321,239.75L191,239.75L191,272.25L321,272.25L321,239.75ZM216.139,311.927C216.139,315.274 216.797,318.06 218.112,320.287C219.427,322.513 221.143,324.141 223.259,325.169C225.374,326.198 228.047,326.712 231.276,326.712C234.453,326.712 237.106,326.117 239.235,324.925C241.364,323.734 242.992,322.067 244.118,319.925C245.244,317.783 245.807,315.039 245.807,311.693C245.807,307.084 244.518,303.5 241.94,300.941C239.362,298.382 235.69,297.103 230.925,297.103C226.276,297.103 222.65,298.405 220.046,301.009C217.441,303.613 216.139,307.253 216.139,311.927ZM224.987,311.966C224.987,309.05 225.527,306.96 226.608,305.697C227.689,304.434 229.121,303.802 230.905,303.802C232.767,303.802 234.242,304.424 235.329,305.667C236.416,306.911 236.96,308.88 236.96,311.576C236.96,314.779 236.439,316.999 235.397,318.236C234.356,319.473 232.884,320.091 230.983,320.091C229.134,320.091 227.673,319.46 226.598,318.197C225.524,316.934 224.987,314.857 224.987,311.966Z"/></svg>