<svg xmlns="http://www.w3.org/2000/svg" viewBox="0 0 512 512">
<path d="M242.6 41.4L221 25.6h26.7L256 0l8.3 25.6h26.7l-21.6 15.8 8.2 25.7L256 51.2l-21.6 15.9 8.2-25.7zm26.8 445l8.2 25.6-21.6-15.8-21.6 15.8 8.2-25.6-21.6-15.8h26.7L256 444.9l8.3 25.7h26.7l-21.6 15.8zM35 273.1l-21.6 15.9 8.2-25.6L0 248h26.7l8.3-25.6 8.3 25.6h26.8l-21.8 15.9 8.2 25.6L35 273.6v-.5zm123.9-202l8.2 25.6-21.6-15.6-21.6 15.8 8.2-25.6-21.6-15.8h26.7L145.5 29.9l8.3 25.6h26.7l-21.7 15.6zm-102 65.7l8.2-25.6 8.4 25.6h26l-21.6 16 8.2 25.6-21.8-15.9-21.8 15.9 8.3-25.6-21.6-15.9h27.6zm-27.6 222.4h27.6l8.2-25.6 8.4 25.6h26l-21.6 15.9 8.2 25.6-21.8-15.8-21.8 15.8 8.3-25.6-21.6-15.9zm102.8 97.3l-21.6-15.6h26.7l8.2-25.6 8.3 25.6h26.7l-21.6 15.6 8.2 25.7-21.6-15.8-21.6 15.8 8.2-25.7zm358.3-192.6l8.2 25.6-21.6-15.9-21.9 15.9 8.3-25.6-21.8-15.9h27.7l8.3-25.6 8.2 25.6H512l-21.6 15.9zm-137.3-192.9l-21.6-15.6h26.7l8.3-25.6 8.3 25.6h26.7l-21.6 15.6 8.2 25.6-21.6-15.6-21.6 15.8 8.3-25.6zm85.4 65.6l8.4-25.6 8.2 25.6h26.8l-21.1 16 8.3 25.6-21.6-15.9-21.8 15.9 8.3-25.6-21.5-15.9h26zM455.1 359.3h26.8l-21.1 15.9 8.3 25.6-21.6-15.8-21.8 15.8 8.3-25.6-21.5-15.9h26.8l8.4-25.6 8.2 25.6zm-53.6 81.6l-21.6 15.6 8.2 25.6-21.6-15.7-21.6 15.7 8.2-25.6-21.6-15.7h26.7l8.3-25.6 8.3 25.6h26.7zM109.3 293.3v-74.6h36.4c6.7 0 11.9.6 15.5 1.8 3.5 1.2 6.4 3.5 8.6 6.8 2.2 3.3 3.3 7.3 3.3 12.1 0 4.1-.8 7.7-2.5 10.7-1.7 3-4 5.4-6.9 7.3-1.9 1.2-4.4 2.2-7.7 3 2.6.9 4.5 1.8 5.7 2.7.8.6 2 1.9 3.5 3.9 1.5 2 2.5 3.5 3 4.6l10.6 21.6H154l-11.6-22.8c-1.5-3-2.8-4.9-4-5.8-1.6-1.1-3.4-1.7-5.4-1.7h-1.9v30.3h-21.9zm21.9-44.4h9.2c1 0 2.9-.3 5.8-1 1.4-.3 2.6-1.1 3.5-2.3.9-1.3 1.4-2.7 1.4-4.4 0-2.4-.7-4.3-2.2-5.5-1.4-1.3-4.1-2-8.1-2h-9.6v15.2zm88.3 17.4v-15.5h33.7v31.8c-6.5 4.6-12.2 7.8-17.1 9.5-5 1.7-10.9 2.5-17.7 2.5-8.4 0-15.2-1.5-20.5-4.5-5.3-3-9.4-7.5-12.3-13.5-2.9-6-4.4-12.8-4.4-20.6 0-8.1 1.6-15.2 4.8-21.2 3.2-6 7.8-10.6 14-13.7 4.8-2.4 11.2-3.6 19.3-3.6 7.8 0 13.6.7 17.5 2.2 3.9 1.5 7.1 3.8 9.7 7s4.5 7.1 5.8 11.9l-21.1 4c-.9-2.8-2.4-5-4.4-6.5-2.1-1.5-4.7-2.2-7.9-2.2-4.8 0-8.6 1.8-11.4 5.3-2.8 3.5-4.3 9.1-4.3 16.7 0 8.1 1.4 13.8 4.3 17.3 2.9 3.5 6.9 5.2 12 5.2 2.4 0 4.8-.4 7-1.1 2.2-.7 4.7-2 7.6-3.8V266.3h-14.6zm46.6-47.6h36.3c7.9 0 13.8 2 17.7 6 4 4 6 9.6 6 16.9 0 7.5-2.1 13.4-6.4 17.6-4.3 4.2-10.8 6.3-19.6 6.3h-12v27.7h-22v-74.5zm21.9 31.8h5.3c4.2 0 7.2-.8 8.9-2.3 1.7-1.5 2.6-3.5 2.6-5.9 0-2.3-.7-4.3-2.2-5.9-1.5-1.6-4.3-2.4-8.4-2.4h-6.2v16.5zm49.7-31.8h32.4c6.4 0 11.6.9 15.5 2.7 3.9 1.8 7.2 4.4 9.8 7.9 2.6 3.4 4.4 7.4 5.6 11.9 1.2 4.5 1.7 9.4 1.7 14.5 0 8-1 14.1-2.6 18.5-1.7 4.4-4.1 8.1-7.1 11.1-3.1 3-6.3 5-9.8 6-4.8 1.4-9.1 2-13 2H337.7v-74.6zm21.8 16.9v40.7h5.3c4.6 0 7.8-.5 9.7-1.6s3.4-3.5 4.5-6.2c1.1-2.7 1.6-7 1.6-13 0-7.9-1.2-13.3-3.7-16.2-2.4-2.9-6.5-4.4-12.1-4.4h-5.3z"/>
</svg>
