<?xml version="1.0" encoding="UTF-8" standalone="no"?><!DOCTYPE svg PUBLIC "-//W3C//DTD SVG 1.1//EN" "http://www.w3.org/Graphics/SVG/1.1/DTD/svg11.dtd"><svg width="512px" height="512px" version="1.1" xmlns="http://www.w3.org/2000/svg" xmlns:xlink="http://www.w3.org/1999/xlink" xml:space="preserve" xmlns:serif="http://www.serif.com/" style="fill-rule:evenodd;clip-rule:evenodd;stroke-linejoin:round;stroke-miterlimit:2;"><path d="M242.624,41.387L221.013,25.6L247.744,25.6L256,0L264.256,25.6L290.987,25.6L269.376,41.387L277.611,67.136L256,51.2L234.389,67.136L242.624,41.387ZM269.376,486.4L277.611,512L256,496.213L234.389,512L242.624,486.4L221.013,470.613L247.744,470.613L256,444.864L264.256,470.613L290.987,470.613L269.376,486.4ZM34.987,273.067L13.376,289.003L21.611,263.403L0,248.043L26.731,248.043L34.987,222.443L43.243,248.043L70.123,248.043L48.363,263.957L56.597,289.557L34.987,273.643L34.987,273.067ZM158.869,71.104L167.104,96.704L145.493,81.067L123.883,96.853L132.117,71.253L110.507,55.467L137.237,55.467L145.493,29.867L153.749,55.467L180.48,55.467L158.869,71.104ZM56.896,136.811L65.131,111.211L73.536,136.811L99.563,136.811L77.931,152.747L86.187,178.347L64.427,162.411L42.667,178.347L50.923,152.747L29.291,136.811L56.896,136.811ZM29.291,359.253L56.896,359.253L65.131,333.653L73.536,359.253L99.563,359.253L77.931,375.189L86.187,400.789L64.427,385.003L42.667,400.789L50.923,375.189L29.291,359.253ZM132.117,456.533L110.507,440.896L137.237,440.896L145.493,415.296L153.749,440.896L180.48,440.896L158.869,456.533L167.104,482.133L145.493,466.347L123.883,482.133L132.117,456.533ZM490.389,263.957L498.624,289.557L477.013,273.643L455.104,289.557L463.36,263.957L441.6,248.043L469.333,248.043L477.589,222.443L485.824,248.043L512,248.043L490.389,263.957ZM353.131,71.104L331.52,55.467L358.251,55.467L366.507,29.867L374.763,55.467L401.493,55.467L379.883,71.104L388.117,96.704L366.507,81.067L344.896,96.853L353.131,71.253L353.131,71.104ZM438.464,136.683L446.869,111.083L455.104,136.683L481.856,136.683L460.8,152.747L469.056,178.347L447.424,162.411L425.664,178.347L433.92,152.747L412.437,136.811L438.464,136.683ZM455.104,359.253L481.856,359.253L460.8,375.189L469.056,400.789L447.424,385.003L425.664,400.789L433.92,375.189L412.437,359.253L439.189,359.253L447.573,333.653L455.829,359.253L455.104,359.253ZM401.493,440.896L379.883,456.533L388.117,482.133L366.507,466.347L344.896,482.133L353.131,456.533L331.52,440.896L358.251,440.896L366.507,415.296L374.763,440.896L401.493,440.896Z" style="fill-rule:nonzero;"/><g id="HR"><path d="M109,256.047C109,244.68 112.166,235.83 118.499,229.497C124.832,223.164 133.65,219.998 144.954,219.998C156.543,219.998 165.473,223.109 171.742,229.331C178.012,235.553 181.146,244.268 181.146,255.478C181.146,263.615 179.777,270.288 177.038,275.497C174.299,280.706 170.341,284.759 165.164,287.656C159.987,290.553 153.535,292.002 145.809,292.002C137.957,292.002 131.458,290.751 126.312,288.25C121.167,285.748 116.995,281.79 113.797,276.376C110.599,270.961 109,264.185 109,256.047ZM130.516,256.142C130.516,263.172 131.822,268.222 134.434,271.294C137.046,274.365 140.601,275.901 145.097,275.901C149.72,275.901 153.298,274.397 155.831,271.389C158.364,268.381 159.631,262.982 159.631,255.193C159.631,248.638 158.309,243.849 155.665,240.825C153.021,237.801 149.435,236.289 144.907,236.289C140.569,236.289 137.086,237.825 134.458,240.896C131.83,243.968 130.516,249.05 130.516,256.142Z" style="fill-rule:nonzero;"/><path d="M238.047,221.185L259.515,221.185L259.515,262.669C259.515,266.783 258.874,270.667 257.591,274.322C256.309,277.976 254.298,281.172 251.559,283.91C248.82,286.647 245.947,288.569 242.939,289.676C238.759,291.227 233.74,292.002 227.882,292.002C224.494,292.002 220.798,291.764 216.792,291.289C212.787,290.815 209.438,289.874 206.747,288.466C204.055,287.058 201.593,285.056 199.361,282.462C197.129,279.867 195.601,277.193 194.778,274.44C193.448,270.01 192.783,266.087 192.783,262.669L192.783,221.185L214.251,221.185L214.251,263.657C214.251,267.454 215.304,270.42 217.41,272.555C219.515,274.691 222.436,275.758 226.173,275.758C229.877,275.758 232.782,274.706 234.888,272.603C236.994,270.499 238.047,267.517 238.047,263.657L238.047,221.185Z" style="fill-rule:nonzero;"/><path d="M272.006,221.185L332.896,221.185L332.896,235.102L293.854,275.853L334.321,275.853L334.321,290.815L268.254,290.815L268.254,276.376L306.868,236.052L272.006,236.052L272.006,221.185Z" style="fill-rule:nonzero;"/><path d="M343.915,221.185L379.679,221.185C387.469,221.185 393.303,223.038 397.182,226.742C401.061,230.447 403,235.719 403,242.559C403,249.588 400.886,255.082 396.659,259.04C392.432,262.998 385.981,264.977 377.305,264.977L365.526,264.977L365.526,290.815L343.915,290.815L343.915,221.185ZM365.526,250.87L370.798,250.87C374.946,250.87 377.859,250.15 379.537,248.709C381.215,247.269 382.054,245.424 382.054,243.176C382.054,240.991 381.326,239.139 379.869,237.619C378.413,236.099 375.674,235.339 371.653,235.339L365.526,235.339L365.526,250.87Z" style="fill-rule:nonzero;"/></g></svg>