<?xml version="1.0" encoding="UTF-8" standalone="no"?><!DOCTYPE svg PUBLIC "-//W3C//DTD SVG 1.1//EN" "http://www.w3.org/Graphics/SVG/1.1/DTD/svg11.dtd"><svg width="100%" height="100%" viewBox="0 0 512 512" version="1.1" xmlns="http://www.w3.org/2000/svg" xmlns:xlink="http://www.w3.org/1999/xlink" xml:space="preserve" xmlns:serif="http://www.serif.com/" style="fill-rule:evenodd;clip-rule:evenodd;stroke-linejoin:round;stroke-miterlimit:2;"><path d="M242.624,41.387L221.013,25.6L247.744,25.6L256,0L264.256,25.6L290.987,25.6L269.376,41.387L277.611,67.136L256,51.2L234.389,67.136L242.624,41.387ZM269.376,486.4L277.611,512L256,496.213L234.389,512L242.624,486.4L221.013,470.613L247.744,470.613L256,444.864L264.256,470.613L290.987,470.613L269.376,486.4ZM34.987,273.067L13.376,289.003L21.611,263.403L0,248.043L26.731,248.043L34.987,222.443L43.243,248.043L70.123,248.043L48.363,263.957L56.597,289.557L34.987,273.643L34.987,273.067ZM158.869,71.104L167.104,96.704L145.493,81.067L123.883,96.853L132.117,71.253L110.507,55.467L137.237,55.467L145.493,29.867L153.749,55.467L180.48,55.467L158.869,71.104ZM56.896,136.811L65.131,111.211L73.536,136.811L99.563,136.811L77.931,152.747L86.187,178.347L64.427,162.411L42.667,178.347L50.923,152.747L29.291,136.811L56.896,136.811ZM29.291,359.253L56.896,359.253L65.131,333.653L73.536,359.253L99.563,359.253L77.931,375.189L86.187,400.789L64.427,385.003L42.667,400.789L50.923,375.189L29.291,359.253ZM132.117,456.533L110.507,440.896L137.237,440.896L145.493,415.296L153.749,440.896L180.48,440.896L158.869,456.533L167.104,482.133L145.493,466.347L123.883,482.133L132.117,456.533ZM490.389,263.957L498.624,289.557L477.013,273.643L455.104,289.557L463.36,263.957L441.6,248.043L469.333,248.043L477.589,222.443L485.824,248.043L512,248.043L490.389,263.957ZM353.131,71.104L331.52,55.467L358.251,55.467L366.507,29.867L374.763,55.467L401.493,55.467L379.883,71.104L388.117,96.704L366.507,81.067L344.896,96.853L353.131,71.253L353.131,71.104ZM438.464,136.683L446.869,111.083L455.104,136.683L481.856,136.683L460.8,152.747L469.056,178.347L447.424,162.411L425.664,178.347L433.92,152.747L412.437,136.811L438.464,136.683ZM455.104,359.253L481.856,359.253L460.8,375.189L469.056,400.789L447.424,385.003L425.664,400.789L433.92,375.189L412.437,359.253L439.189,359.253L447.573,333.653L455.829,359.253L455.104,359.253ZM401.493,440.896L379.883,456.533L388.117,482.133L366.507,466.347L344.896,482.133L353.131,456.533L331.52,440.896L358.251,440.896L366.507,415.296L374.763,440.896L401.493,440.896Z" style="fill-rule:nonzero;"/><g id="FR"><path d="M109,291.38L109,220.62L145.442,220.62C152.2,220.62 157.364,221.199 160.936,222.357C164.508,223.516 167.388,225.664 169.576,228.801C171.764,231.938 172.858,235.76 172.858,240.265C172.858,244.19 172.022,247.577 170.349,250.425C168.675,253.273 166.374,255.582 163.446,257.352C161.58,258.478 159.022,259.411 155.772,260.151C158.378,261.02 160.277,261.89 161.467,262.759C162.272,263.339 163.438,264.579 164.967,266.479C166.495,268.378 167.517,269.843 168.032,270.873L178.602,291.38L153.889,291.38L142.208,269.756C140.728,266.957 139.409,265.139 138.25,264.302C136.674,263.208 134.888,262.661 132.893,262.661L130.962,262.661L130.962,291.38L109,291.38ZM130.962,249.291L140.181,249.291C141.179,249.291 143.109,248.969 145.973,248.325C147.421,248.036 148.604,247.296 149.521,246.105C150.438,244.914 150.897,243.547 150.897,242.002C150.897,239.718 150.173,237.964 148.725,236.741C147.276,235.518 144.557,234.907 140.567,234.907L130.962,234.907L130.962,249.291Z" style="fill-rule:nonzero;"/><path d="M219.389,265.75L219.389,251.028L253.176,251.028L253.176,281.196C246.708,285.604 240.989,288.605 236.017,290.198C231.045,291.791 225.149,292.587 218.327,292.587C209.928,292.587 203.082,291.155 197.789,288.291C192.495,285.427 188.393,281.164 185.481,275.5C182.568,269.837 181.112,263.337 181.112,256C181.112,248.277 182.705,241.56 185.891,235.848C189.077,230.136 193.742,225.8 199.889,222.84C204.683,220.555 211.135,219.413 219.244,219.413C227.063,219.413 232.912,220.121 236.789,221.537C240.667,222.953 243.885,225.149 246.443,228.125C249.001,231.102 250.924,234.875 252.211,239.444L231.118,243.209C230.249,240.538 228.777,238.495 226.701,237.079C224.626,235.663 221.979,234.955 218.761,234.955C213.967,234.955 210.145,236.62 207.298,239.951C204.45,243.281 203.026,248.551 203.026,255.759C203.026,263.417 204.466,268.888 207.346,272.17C210.226,275.452 214.24,277.093 219.389,277.093C221.834,277.093 224.167,276.739 226.388,276.031C228.608,275.323 231.15,274.117 234.014,272.411L234.014,265.75L219.389,265.75Z" style="fill-rule:nonzero;"/><path d="M266.45,220.62L298.934,220.62C305.338,220.62 310.511,221.488 314.452,223.226C318.394,224.964 321.652,227.458 324.227,230.708C326.801,233.958 328.667,237.739 329.826,242.051C330.984,246.363 331.563,250.932 331.563,255.759C331.563,263.321 330.703,269.185 328.981,273.352C327.26,277.519 324.87,281.011 321.813,283.826C318.756,286.642 315.474,288.516 311.967,289.45C307.172,290.737 302.828,291.38 298.934,291.38L266.45,291.38L266.45,220.62ZM288.315,236.645L288.315,275.307L293.673,275.307C298.242,275.307 301.493,274.8 303.423,273.787C305.354,272.773 306.866,271.003 307.96,268.477C309.055,265.951 309.602,261.857 309.602,256.193C309.602,248.695 308.379,243.563 305.933,240.796C303.488,238.028 299.433,236.645 293.77,236.645L288.315,236.645Z" style="fill-rule:nonzero;"/><path d="M342.955,220.62L379.3,220.62C387.216,220.62 393.145,222.502 397.087,226.267C401.029,230.032 403,235.39 403,242.34C403,249.484 400.852,255.067 396.556,259.089C392.26,263.111 385.704,265.123 376.887,265.123L364.917,265.123L364.917,291.38L342.955,291.38L342.955,220.62ZM364.917,250.787L370.274,250.787C374.49,250.787 377.45,250.055 379.156,248.591C380.861,247.127 381.714,245.252 381.714,242.968C381.714,240.747 380.974,238.865 379.494,237.32C378.013,235.776 375.23,235.003 371.143,235.003L364.917,235.003L364.917,250.787Z" style="fill-rule:nonzero;"/></g></svg>