<?xml version="1.0" encoding="UTF-8" standalone="no"?><!DOCTYPE svg PUBLIC "-//W3C//DTD SVG 1.1//EN" "http://www.w3.org/Graphics/SVG/1.1/DTD/svg11.dtd"><svg width="512px" height="512px" version="1.1" xmlns="http://www.w3.org/2000/svg" xmlns:xlink="http://www.w3.org/1999/xlink" xml:space="preserve" xmlns:serif="http://www.serif.com/" style="fill-rule:evenodd;clip-rule:evenodd;stroke-linejoin:round;stroke-miterlimit:2;"><path d="M242.624,41.387L221.013,25.6L247.744,25.6L256,0L264.256,25.6L290.987,25.6L269.376,41.387L277.611,67.136L256,51.2L234.389,67.136L242.624,41.387ZM269.376,486.4L277.611,512L256,496.213L234.389,512L242.624,486.4L221.013,470.613L247.744,470.613L256,444.864L264.256,470.613L290.987,470.613L269.376,486.4ZM34.987,273.067L13.376,289.003L21.611,263.403L0,248.043L26.731,248.043L34.987,222.443L43.243,248.043L70.123,248.043L48.363,263.957L56.597,289.557L34.987,273.643L34.987,273.067ZM158.869,71.104L167.104,96.704L145.493,81.067L123.883,96.853L132.117,71.253L110.507,55.467L137.237,55.467L145.493,29.867L153.749,55.467L180.48,55.467L158.869,71.104ZM56.896,136.811L65.131,111.211L73.536,136.811L99.563,136.811L77.931,152.747L86.187,178.347L64.427,162.411L42.667,178.347L50.923,152.747L29.291,136.811L56.896,136.811ZM29.291,359.253L56.896,359.253L65.131,333.653L73.536,359.253L99.563,359.253L77.931,375.189L86.187,400.789L64.427,385.003L42.667,400.789L50.923,375.189L29.291,359.253ZM132.117,456.533L110.507,440.896L137.237,440.896L145.493,415.296L153.749,440.896L180.48,440.896L158.869,456.533L167.104,482.133L145.493,466.347L123.883,482.133L132.117,456.533ZM490.389,263.957L498.624,289.557L477.013,273.643L455.104,289.557L463.36,263.957L441.6,248.043L469.333,248.043L477.589,222.443L485.824,248.043L512,248.043L490.389,263.957ZM353.131,71.104L331.52,55.467L358.251,55.467L366.507,29.867L374.763,55.467L401.493,55.467L379.883,71.104L388.117,96.704L366.507,81.067L344.896,96.853L353.131,71.253L353.131,71.104ZM438.464,136.683L446.869,111.083L455.104,136.683L481.856,136.683L460.8,152.747L469.056,178.347L447.424,162.411L425.664,178.347L433.92,152.747L412.437,136.811L438.464,136.683ZM455.104,359.253L481.856,359.253L460.8,375.189L469.056,400.789L447.424,385.003L425.664,400.789L433.92,375.189L412.437,359.253L439.189,359.253L447.573,333.653L455.829,359.253L455.104,359.253ZM401.493,440.896L379.883,456.533L388.117,482.133L366.507,466.347L344.896,482.133L353.131,456.533L331.52,440.896L358.251,440.896L366.507,415.296L374.763,440.896L401.493,440.896Z" style="fill-rule:nonzero;"/><g id="DE"><path d="M109,228.218L134.508,228.218C139.536,228.218 143.598,228.901 146.693,230.265C149.788,231.629 152.346,233.588 154.368,236.14C156.389,238.692 157.855,241.661 158.764,245.047C159.674,248.432 160.129,252.02 160.129,255.81C160.129,261.748 159.453,266.353 158.101,269.625C156.749,272.898 154.873,275.639 152.473,277.85C150.072,280.061 147.495,281.533 144.741,282.266C140.976,283.276 137.565,283.782 134.508,283.782L109,283.782L109,228.218ZM126.169,240.802L126.169,271.161L130.376,271.161C133.964,271.161 136.516,270.763 138.032,269.967C139.548,269.171 140.736,267.781 141.595,265.797C142.454,263.814 142.884,260.599 142.884,256.152C142.884,250.264 141.924,246.234 140.003,244.061C138.083,241.888 134.899,240.802 130.452,240.802L126.169,240.802Z" style="fill-rule:nonzero;"/><path d="M166.155,265.4L182.491,264.376C182.844,267.029 183.564,269.051 184.651,270.44C186.42,272.689 188.946,273.814 192.231,273.814C194.682,273.814 196.571,273.239 197.897,272.089C199.224,270.939 199.887,269.607 199.887,268.09C199.887,266.65 199.256,265.362 197.992,264.225C196.729,263.088 193.798,262.014 189.199,261.003C181.669,259.31 176.3,257.061 173.091,254.257C169.857,251.452 168.24,247.876 168.24,243.53C168.24,240.675 169.067,237.978 170.722,235.439C172.377,232.899 174.866,230.903 178.189,229.45C181.511,227.997 186.066,227.271 191.852,227.271C198.952,227.271 204.366,228.591 208.093,231.232C211.82,233.872 214.037,238.073 214.744,243.834L198.561,244.781C198.131,242.28 197.228,240.46 195.851,239.323C194.474,238.186 192.572,237.618 190.147,237.618C188.15,237.618 186.647,238.041 185.636,238.888C184.626,239.734 184.12,240.764 184.12,241.977C184.12,242.861 184.537,243.657 185.371,244.364C186.18,245.097 188.1,245.779 191.132,246.411C198.636,248.028 204.012,249.664 207.259,251.319C210.506,252.974 212.868,255.027 214.347,257.478C215.825,259.929 216.564,262.671 216.564,265.703C216.564,269.265 215.578,272.55 213.607,275.557C211.637,278.564 208.882,280.844 205.345,282.398C201.808,283.952 197.348,284.729 191.966,284.729C182.516,284.729 175.972,282.91 172.333,279.271C168.694,275.633 166.635,271.009 166.155,265.4Z" style="fill-rule:nonzero;"/><path d="M253.138,263.656L253.138,252.096L279.669,252.096L279.669,275.784C274.591,279.246 270.099,281.602 266.195,282.853C262.292,284.104 257.661,284.729 252.305,284.729C245.71,284.729 240.334,283.605 236.178,281.356C232.021,279.107 228.8,275.759 226.513,271.312C224.226,266.865 223.083,261.761 223.083,256C223.083,249.936 224.334,244.661 226.835,240.176C229.336,235.691 233,232.286 237.826,229.962C241.591,228.168 246.657,227.271 253.025,227.271C259.165,227.271 263.757,227.827 266.802,228.939C269.847,230.05 272.373,231.775 274.382,234.112C276.391,236.449 277.901,239.412 278.911,243L262.348,245.956C261.666,243.859 260.51,242.254 258.88,241.143C257.251,240.031 255.172,239.475 252.646,239.475C248.881,239.475 245.88,240.783 243.644,243.398C241.408,246.013 240.29,250.151 240.29,255.81C240.29,261.824 241.421,266.12 243.682,268.697C245.944,271.274 249.096,272.563 253.138,272.563C255.059,272.563 256.891,272.285 258.634,271.729C260.378,271.173 262.374,270.226 264.623,268.886L264.623,263.656L253.138,263.656Z" style="fill-rule:nonzero;"/><path d="M284.369,228.218L302.334,228.218L314.842,268.204L327.16,228.218L344.594,228.218L323.976,283.782L305.366,283.782L284.369,228.218Z" style="fill-rule:nonzero;"/><path d="M345.428,256.038C345.428,246.967 347.955,239.905 353.008,234.851C358.062,229.798 365.099,227.271 374.119,227.271C383.367,227.271 390.493,229.753 395.496,234.718C400.499,239.684 403,246.638 403,255.583C403,262.077 401.907,267.402 399.722,271.558C397.536,275.715 394.377,278.949 390.246,281.261C386.115,283.573 380.967,284.729 374.801,284.729C368.535,284.729 363.349,283.731 359.243,281.735C355.137,279.739 351.808,276.58 349.256,272.26C346.704,267.939 345.428,262.532 345.428,256.038ZM362.597,256.114C362.597,261.723 363.64,265.753 365.724,268.204C367.809,270.655 370.645,271.881 374.233,271.881C377.922,271.881 380.777,270.68 382.799,268.28C384.82,265.88 385.831,261.571 385.831,255.356C385.831,250.125 384.776,246.304 382.666,243.891C380.556,241.478 377.695,240.271 374.081,240.271C370.62,240.271 367.84,241.496 365.743,243.947C363.646,246.398 362.597,250.454 362.597,256.114Z" style="fill-rule:nonzero;"/></g></svg>