<?xml version="1.0" encoding="UTF-8" standalone="no"?><!DOCTYPE svg PUBLIC "-//W3C//DTD SVG 1.1//EN" "http://www.w3.org/Graphics/SVG/1.1/DTD/svg11.dtd"><svg width="512px" height="512px" version="1.1" xmlns="http://www.w3.org/2000/svg" xmlns:xlink="http://www.w3.org/1999/xlink" xml:space="preserve" xmlns:serif="http://www.serif.com/" style="fill-rule:evenodd;clip-rule:evenodd;stroke-linejoin:round;stroke-miterlimit:2;"><path d="M242.624,41.387L221.013,25.6L247.744,25.6L256,0L264.256,25.6L290.987,25.6L269.376,41.387L277.611,67.136L256,51.2L234.389,67.136L242.624,41.387ZM269.376,486.4L277.611,512L256,496.213L234.389,512L242.624,486.4L221.013,470.613L247.744,470.613L256,444.864L264.256,470.613L290.987,470.613L269.376,486.4ZM34.987,273.067L13.376,289.003L21.611,263.403L0,248.043L26.731,248.043L34.987,222.443L43.243,248.043L70.123,248.043L48.363,263.957L56.597,289.557L34.987,273.643L34.987,273.067ZM158.869,71.104L167.104,96.704L145.493,81.067L123.883,96.853L132.117,71.253L110.507,55.467L137.237,55.467L145.493,29.867L153.749,55.467L180.48,55.467L158.869,71.104ZM56.896,136.811L65.131,111.211L73.536,136.811L99.563,136.811L77.931,152.747L86.187,178.347L64.427,162.411L42.667,178.347L50.923,152.747L29.291,136.811L56.896,136.811ZM29.291,359.253L56.896,359.253L65.131,333.653L73.536,359.253L99.563,359.253L77.931,375.189L86.187,400.789L64.427,385.003L42.667,400.789L50.923,375.189L29.291,359.253ZM132.117,456.533L110.507,440.896L137.237,440.896L145.493,415.296L153.749,440.896L180.48,440.896L158.869,456.533L167.104,482.133L145.493,466.347L123.883,482.133L132.117,456.533ZM490.389,263.957L498.624,289.557L477.013,273.643L455.104,289.557L463.36,263.957L441.6,248.043L469.333,248.043L477.589,222.443L485.824,248.043L512,248.043L490.389,263.957ZM353.131,71.104L331.52,55.467L358.251,55.467L366.507,29.867L374.763,55.467L401.493,55.467L379.883,71.104L388.117,96.704L366.507,81.067L344.896,96.853L353.131,71.253L353.131,71.104ZM438.464,136.683L446.869,111.083L455.104,136.683L481.856,136.683L460.8,152.747L469.056,178.347L447.424,162.411L425.664,178.347L433.92,152.747L412.437,136.811L438.464,136.683ZM455.104,359.253L481.856,359.253L460.8,375.189L469.056,400.789L447.424,385.003L425.664,400.789L433.92,375.189L412.437,359.253L439.189,359.253L447.573,333.653L455.829,359.253L455.104,359.253ZM401.493,440.896L379.883,456.533L388.117,482.133L366.507,466.347L344.896,482.133L353.131,456.533L331.52,440.896L358.251,440.896L366.507,415.296L374.763,440.896L401.493,440.896Z" style="fill-rule:nonzero;"/><g id="DK"><path d="M155.332,221.695L186.829,221.695C193.038,221.695 198.053,222.538 201.875,224.223C205.697,225.907 208.856,228.325 211.352,231.477C213.848,234.628 215.658,238.294 216.781,242.475C217.904,246.656 218.466,251.086 218.466,255.766C218.466,263.098 217.631,268.784 215.962,272.825C214.293,276.865 211.976,280.25 209.012,282.98C206.048,285.71 202.866,287.528 199.465,288.433C194.816,289.681 190.604,290.305 186.829,290.305L155.332,290.305L155.332,221.695ZM176.533,237.233L176.533,274.72L181.728,274.72C186.158,274.72 189.309,274.229 191.181,273.246C193.053,272.263 194.52,270.547 195.581,268.098C196.642,265.649 197.172,261.678 197.172,256.187C197.172,248.918 195.986,243.941 193.615,241.258C191.244,238.575 187.313,237.233 181.821,237.233L176.533,237.233Z" style="fill-rule:nonzero;"/><path d="M229.651,221.695L269.338,221.695C275.953,221.695 281.03,223.333 284.572,226.609C288.113,229.885 289.883,233.941 289.883,238.777C289.883,242.833 288.62,246.312 286.093,249.214C284.408,251.148 281.943,252.677 278.698,253.8C283.628,254.986 287.255,257.022 289.579,259.908C291.904,262.794 293.066,266.421 293.066,270.789C293.066,274.346 292.239,277.544 290.585,280.383C288.932,283.222 286.67,285.469 283.799,287.122C282.021,288.152 279.338,288.901 275.75,289.369C270.976,289.993 267.809,290.305 266.249,290.305L229.651,290.305L229.651,221.695ZM251.039,248.606L260.259,248.606C263.566,248.606 265.867,248.036 267.162,246.897C268.457,245.759 269.104,244.113 269.104,241.96C269.104,239.963 268.457,238.403 267.162,237.28C265.867,236.157 263.613,235.595 260.399,235.595L251.039,235.595L251.039,248.606ZM251.039,275.563L261.85,275.563C265.5,275.563 268.074,274.915 269.572,273.62C271.07,272.326 271.819,270.586 271.819,268.402C271.819,266.374 271.078,264.744 269.596,263.511C268.113,262.279 265.516,261.663 261.803,261.663L251.039,261.663L251.039,275.563Z" style="fill-rule:nonzero;"/><path d="M304.251,221.695L356.668,221.695L356.668,236.437L325.545,236.437L325.545,248.418L352.128,248.418L352.128,262.271L325.545,262.271L325.545,290.305L304.251,290.305L304.251,221.695Z" style="fill-rule:nonzero;"/></g></svg>