<?xml version="1.0" encoding="UTF-8" standalone="no"?><!DOCTYPE svg PUBLIC "-//W3C//DTD SVG 1.1//EN" "http://www.w3.org/Graphics/SVG/1.1/DTD/svg11.dtd"><svg width="100%" height="100%" viewBox="0 0 512 512" version="1.1" xmlns="http://www.w3.org/2000/svg" xmlns:xlink="http://www.w3.org/1999/xlink" xml:space="preserve" xmlns:serif="http://www.serif.com/" style="fill-rule:evenodd;clip-rule:evenodd;stroke-linejoin:round;stroke-miterlimit:2;"><path d="M242.624,41.387L221.013,25.6L247.744,25.6L256,0L264.256,25.6L290.987,25.6L269.376,41.387L277.611,67.136L256,51.2L234.389,67.136L242.624,41.387ZM269.376,486.4L277.611,512L256,496.213L234.389,512L242.624,486.4L221.013,470.613L247.744,470.613L256,444.864L264.256,470.613L290.987,470.613L269.376,486.4ZM34.987,273.067L13.376,289.003L21.611,263.403L0,248.043L26.731,248.043L34.987,222.443L43.243,248.043L70.123,248.043L48.363,263.957L56.597,289.557L34.987,273.643L34.987,273.067ZM158.869,71.104L167.104,96.704L145.493,81.067L123.883,96.853L132.117,71.253L110.507,55.467L137.237,55.467L145.493,29.867L153.749,55.467L180.48,55.467L158.869,71.104ZM56.896,136.811L65.131,111.211L73.536,136.811L99.563,136.811L77.931,152.747L86.187,178.347L64.427,162.411L42.667,178.347L50.923,152.747L29.291,136.811L56.896,136.811ZM29.291,359.253L56.896,359.253L65.131,333.653L73.536,359.253L99.563,359.253L77.931,375.189L86.187,400.789L64.427,385.003L42.667,400.789L50.923,375.189L29.291,359.253ZM132.117,456.533L110.507,440.896L137.237,440.896L145.493,415.296L153.749,440.896L180.48,440.896L158.869,456.533L167.104,482.133L145.493,466.347L123.883,482.133L132.117,456.533ZM490.389,263.957L498.624,289.557L477.013,273.643L455.104,289.557L463.36,263.957L441.6,248.043L469.333,248.043L477.589,222.443L485.824,248.043L512,248.043L490.389,263.957ZM353.131,71.104L331.52,55.467L358.251,55.467L366.507,29.867L374.763,55.467L401.493,55.467L379.883,71.104L388.117,96.704L366.507,81.067L344.896,96.853L353.131,71.253L353.131,71.104ZM438.464,136.683L446.869,111.083L455.104,136.683L481.856,136.683L460.8,152.747L469.056,178.347L447.424,162.411L425.664,178.347L433.92,152.747L412.437,136.811L438.464,136.683ZM455.104,359.253L481.856,359.253L460.8,375.189L469.056,400.789L447.424,385.003L425.664,400.789L433.92,375.189L412.437,359.253L439.189,359.253L447.573,333.653L455.829,359.253L455.104,359.253ZM401.493,440.896L379.883,456.533L388.117,482.133L366.507,466.347L344.896,482.133L353.131,456.533L331.52,440.896L358.251,440.896L366.507,415.296L374.763,440.896L401.493,440.896Z" style="fill-rule:nonzero;"/><g id="LT"><path d="M109,220.891L149.618,220.891C156.387,220.891 161.584,222.567 165.209,225.92C168.833,229.273 170.645,233.424 170.645,238.373C170.645,242.525 169.352,246.085 166.765,249.055C165.041,251.035 162.518,252.599 159.197,253.749C164.243,254.962 167.955,257.046 170.334,260C172.713,262.953 173.902,266.665 173.902,271.136C173.902,274.776 173.056,278.049 171.364,280.955C169.671,283.861 167.356,286.16 164.418,287.852C162.598,288.906 159.852,289.673 156.18,290.152C151.294,290.79 148.053,291.109 146.457,291.109L109,291.109L109,220.891ZM130.89,248.432L140.326,248.432C143.71,248.432 146.065,247.849 147.391,246.684C148.716,245.518 149.378,243.834 149.378,241.63C149.378,239.587 148.716,237.99 147.391,236.841C146.065,235.691 143.758,235.116 140.469,235.116L130.89,235.116L130.89,248.432ZM130.89,276.022L141.954,276.022C145.69,276.022 148.325,275.359 149.857,274.034C151.39,272.709 152.156,270.928 152.156,268.693C152.156,266.617 151.398,264.949 149.881,263.688C148.364,262.426 145.706,261.796 141.906,261.796L130.89,261.796L130.89,276.022Z" style="fill-rule:nonzero;"/><path d="M185.542,220.891L217.777,220.891C224.132,220.891 229.265,221.753 233.176,223.477C237.088,225.201 240.321,227.676 242.876,230.901C245.43,234.126 247.283,237.878 248.432,242.157C249.582,246.436 250.156,250.971 250.156,255.761C250.156,263.265 249.302,269.084 247.594,273.219C245.885,277.355 243.514,280.819 240.481,283.613C237.447,286.407 234.19,288.268 230.71,289.194C225.952,290.471 221.641,291.109 217.777,291.109L185.542,291.109L185.542,220.891ZM207.239,236.793L207.239,275.159L212.556,275.159C217.091,275.159 220.316,274.656 222.232,273.651C224.148,272.645 225.648,270.888 226.734,268.382C227.82,265.875 228.363,261.812 228.363,256.192C228.363,248.751 227.149,243.658 224.722,240.912C222.296,238.166 218.272,236.793 212.652,236.793L207.239,236.793Z" style="fill-rule:nonzero;"/><path d="M300.545,279.518L275.83,279.518L272.429,291.109L250.252,291.109L276.644,220.891L300.306,220.891L326.698,291.109L303.994,291.109L300.545,279.518ZM295.995,264.334L288.236,239.092L280.524,264.334L295.995,264.334Z" style="fill-rule:nonzero;"/><path d="M333.931,291.109L333.931,220.891L370.094,220.891C376.8,220.891 381.925,221.465 385.469,222.615C389.014,223.764 391.872,225.896 394.043,229.009C396.214,232.123 397.3,235.915 397.3,240.385C397.3,244.281 396.47,247.642 394.809,250.468C393.149,253.294 390.866,255.585 387.96,257.341C386.108,258.459 383.569,259.385 380.344,260.119C382.931,260.982 384.815,261.845 385.996,262.707C386.794,263.283 387.952,264.513 389.469,266.398C390.986,268.283 391.999,269.737 392.51,270.759L403,291.109L378.476,291.109L366.885,269.651C365.416,266.873 364.107,265.069 362.957,264.239C361.392,263.153 359.62,262.61 357.64,262.61L355.724,262.61L355.724,291.109L333.931,291.109ZM355.724,249.342L364.873,249.342C365.863,249.342 367.779,249.023 370.621,248.384C372.058,248.097 373.231,247.362 374.141,246.181C375.051,244.999 375.506,243.642 375.506,242.109C375.506,239.842 374.788,238.102 373.351,236.889C371.914,235.675 369.216,235.068 365.256,235.068L355.724,235.068L355.724,249.342Z" style="fill-rule:nonzero;"/></g></svg>
