<?xml version="1.0" encoding="UTF-8" standalone="no"?><!DOCTYPE svg PUBLIC "-//W3C//DTD SVG 1.1//EN" "http://www.w3.org/Graphics/SVG/1.1/DTD/svg11.dtd"><svg width="512px" height="512px" version="1.1" xmlns="http://www.w3.org/2000/svg" xmlns:xlink="http://www.w3.org/1999/xlink" xml:space="preserve" xmlns:serif="http://www.serif.com/" style="fill-rule:evenodd;clip-rule:evenodd;stroke-linejoin:round;stroke-miterlimit:2;"><g><path d="M480.584,259.878L480.584,287.378C480.584,317.734 455.939,342.379 425.584,342.379L86.416,342.379C56.061,342.379 31.416,317.734 31.416,287.378L31.416,259.878C31.416,229.523 56.061,204.878 86.416,204.878L425.584,204.878C455.939,204.878 480.584,229.523 480.584,259.878ZM85.27,256.441C75.784,256.441 68.083,264.142 68.083,273.628C68.083,283.114 75.784,290.816 85.27,290.816C94.756,290.816 102.458,283.114 102.458,273.628C102.458,264.142 94.756,256.441 85.27,256.441Z"/><path d="M480.584,408.561L480.584,436.061C480.584,466.416 455.939,491.061 425.584,491.061L86.416,491.061C56.061,491.061 31.416,466.416 31.416,436.061L31.416,408.561C31.416,378.205 56.061,353.561 86.416,353.561L425.584,353.561C455.939,353.561 480.584,378.205 480.584,408.561Z"/><path d="M83.243,394.788L100.252,394.788L100.252,414.05L118.838,414.05L118.838,394.788L135.922,394.788L135.922,449.833L118.838,449.833L118.838,427.568L100.252,427.568L100.252,449.833L83.243,449.833L83.243,394.788Z" style="fill:white;fill-rule:nonzero;"/><path d="M145.084,422.349C145.084,413.362 147.587,406.366 152.594,401.359C157.6,396.353 164.571,393.85 173.508,393.85C182.669,393.85 189.728,396.309 194.685,401.228C199.641,406.147 202.119,413.037 202.119,421.898C202.119,428.331 201.036,433.607 198.871,437.724C196.706,441.842 193.577,445.046 189.484,447.337C185.391,449.627 180.291,450.772 174.183,450.772C167.976,450.772 162.838,449.783 158.77,447.806C154.702,445.828 151.405,442.699 148.876,438.419C146.348,434.139 145.084,428.782 145.084,422.349ZM162.093,422.424C162.093,427.981 163.126,431.973 165.191,434.401C167.256,436.829 170.066,438.043 173.62,438.043C177.275,438.043 180.104,436.854 182.106,434.476C184.109,432.098 185.11,427.83 185.11,421.673C185.11,416.491 184.065,412.705 181.975,410.314C179.884,407.924 177.05,406.729 173.47,406.729C170.041,406.729 167.287,407.943 165.21,410.371C163.132,412.799 162.093,416.816 162.093,422.424Z" style="fill:white;fill-rule:nonzero;"/><path d="M208.314,431.623L224.497,430.609C224.848,433.237 225.561,435.24 226.638,436.617C228.39,438.845 230.893,439.958 234.147,439.958C236.575,439.958 238.446,439.389 239.761,438.25C241.075,437.111 241.732,435.791 241.732,434.289C241.732,432.862 241.106,431.585 239.854,430.459C238.603,429.332 235.699,428.269 231.143,427.267C223.684,425.59 218.365,423.362 215.186,420.584C211.982,417.805 210.38,414.263 210.38,409.958C210.38,407.129 211.199,404.457 212.839,401.941C214.478,399.426 216.944,397.448 220.236,396.009C223.527,394.569 228.039,393.85 233.772,393.85C240.806,393.85 246.169,395.158 249.861,397.774C253.553,400.389 255.75,404.551 256.451,410.258L240.418,411.197C239.992,408.719 239.097,406.916 237.733,405.79C236.369,404.664 234.485,404.1 232.082,404.1C230.105,404.1 228.615,404.52 227.614,405.358C226.613,406.197 226.112,407.217 226.112,408.418C226.112,409.294 226.525,410.083 227.351,410.784C228.152,411.51 230.055,412.186 233.058,412.811C240.493,414.413 245.818,416.034 249.035,417.674C252.251,419.313 254.592,421.347 256.056,423.775C257.521,426.203 258.253,428.919 258.253,431.923C258.253,435.453 257.277,438.707 255.324,441.686C253.372,444.664 250.643,446.924 247.139,448.463C243.634,450.002 239.216,450.772 233.884,450.772C224.522,450.772 218.039,448.97 214.435,445.365C210.83,441.761 208.79,437.18 208.314,431.623Z" style="fill:white;fill-rule:nonzero;"/><path d="M262.946,394.788L314.65,394.788L314.65,408.381L297.303,408.381L297.303,449.833L280.293,449.833L280.293,408.381L262.946,408.381L262.946,394.788Z" style="fill:white;fill-rule:nonzero;"/><path d="M322.309,394.788L367.892,394.788L367.892,406.541L339.356,406.541L339.356,415.29L365.827,415.29L365.827,426.516L339.356,426.516L339.356,437.368L368.718,437.368L368.718,449.833L322.309,449.833L322.309,394.788Z" style="fill:white;fill-rule:nonzero;"/><path d="M378.105,394.788L403.375,394.788C408.356,394.788 412.38,395.464 415.446,396.816C418.513,398.168 421.047,400.108 423.05,402.636C425.052,405.164 426.504,408.105 427.405,411.46C428.307,414.814 428.757,418.368 428.757,422.123C428.757,428.006 428.088,432.568 426.748,435.809C425.409,439.051 423.55,441.767 421.172,443.957C418.794,446.148 416.241,447.606 413.513,448.332C409.783,449.333 406.404,449.833 403.375,449.833L378.105,449.833L378.105,394.788ZM395.114,407.254L395.114,437.33L399.282,437.33C402.837,437.33 405.365,436.936 406.867,436.147C408.369,435.359 409.545,433.982 410.396,432.017C411.247,430.052 411.673,426.867 411.673,422.461C411.673,416.629 410.722,412.636 408.819,410.483C406.917,408.331 403.763,407.254 399.357,407.254L395.114,407.254Z" style="fill:white;fill-rule:nonzero;"/><path d="M122.086,282.94L138.269,281.926C138.62,284.555 139.333,286.557 140.409,287.934C142.162,290.162 144.665,291.276 147.919,291.276C150.347,291.276 152.218,290.706 153.532,289.567C154.846,288.428 155.503,287.108 155.503,285.606C155.503,284.179 154.878,282.903 153.626,281.776C152.375,280.65 149.471,279.586 144.915,278.585C137.456,276.907 132.136,274.68 128.957,271.901C125.753,269.123 124.151,265.581 124.151,261.275C124.151,258.446 124.971,255.774 126.611,253.259C128.25,250.743 130.716,248.765 134.007,247.326C137.299,245.887 141.811,245.167 147.543,245.167C154.577,245.167 159.94,246.475 163.633,249.091C167.325,251.707 169.521,255.868 170.222,261.575L154.189,262.514C153.764,260.036 152.869,258.234 151.505,257.107C150.14,255.981 148.257,255.418 145.854,255.418C143.876,255.418 142.387,255.837 141.386,256.675C140.384,257.514 139.884,258.534 139.884,259.736C139.884,260.612 140.297,261.4 141.123,262.101C141.924,262.827 143.826,263.503 146.83,264.129C154.264,265.731 159.59,267.352 162.807,268.991C166.023,270.631 168.364,272.665 169.828,275.093C171.292,277.521 172.024,280.237 172.024,283.24C172.024,286.77 171.048,290.024 169.096,293.003C167.143,295.982 164.415,298.241 160.91,299.78C157.406,301.32 152.988,302.089 147.656,302.089C138.294,302.089 131.811,300.287 128.206,296.683C124.602,293.078 122.562,288.497 122.086,282.94Z" style="fill:white;fill-rule:nonzero;"/><path d="M174.916,246.106L191.061,246.106L196.881,276.857L205.367,246.106L221.475,246.106L229.998,276.857L235.818,246.106L251.889,246.106L239.761,301.151L223.089,301.151L213.44,266.494L203.827,301.151L187.156,301.151L174.916,246.106Z" style="fill:white;fill-rule:nonzero;"/><rect x="258.159" y="246.106" width="17.047" height="55.045" style="fill:white;fill-rule:nonzero;"/><path d="M284.442,282.94L300.625,281.926C300.976,284.555 301.689,286.557 302.766,287.934C304.518,290.162 307.021,291.276 310.275,291.276C312.703,291.276 314.574,290.706 315.889,289.567C317.203,288.428 317.86,287.108 317.86,285.606C317.86,284.179 317.234,282.903 315.983,281.776C314.731,280.65 311.827,279.586 307.271,278.585C299.812,276.907 294.493,274.68 291.314,271.901C288.11,269.123 286.508,265.581 286.508,261.275C286.508,258.446 287.327,255.774 288.967,253.259C290.606,250.743 293.072,248.765 296.364,247.326C299.655,245.887 304.167,245.167 309.9,245.167C316.934,245.167 322.297,246.475 325.989,249.091C329.681,251.707 331.878,255.868 332.579,261.575L316.546,262.514C316.12,260.036 315.225,258.234 313.861,257.107C312.497,255.981 310.613,255.418 308.21,255.418C306.233,255.418 304.743,255.837 303.742,256.675C302.741,257.514 302.24,258.534 302.24,259.736C302.24,260.612 302.653,261.4 303.479,262.101C304.28,262.827 306.183,263.503 309.186,264.129C316.621,265.731 321.946,267.352 325.163,268.991C328.38,270.631 330.72,272.665 332.184,275.093C333.649,277.521 334.381,280.237 334.381,283.24C334.381,286.77 333.405,290.024 331.452,293.003C329.5,295.982 326.771,298.241 323.267,299.78C319.762,301.32 315.344,302.089 310.012,302.089C300.651,302.089 294.167,300.287 290.563,296.683C286.958,293.078 284.918,288.497 284.442,282.94Z" style="fill:white;fill-rule:nonzero;"/><path d="M339.976,282.94L356.159,281.926C356.509,284.555 357.222,286.557 358.299,287.934C360.051,290.162 362.554,291.276 365.808,291.276C368.236,291.276 370.108,290.706 371.422,289.567C372.736,288.428 373.393,287.108 373.393,285.606C373.393,284.179 372.767,282.903 371.516,281.776C370.264,280.65 367.36,279.586 362.805,278.585C355.345,276.907 350.026,274.68 346.847,271.901C343.643,269.123 342.041,265.581 342.041,261.275C342.041,258.446 342.86,255.774 344.5,253.259C346.14,250.743 348.605,248.765 351.897,247.326C355.189,245.887 359.701,245.167 365.433,245.167C372.467,245.167 377.83,246.475 381.522,249.091C385.214,251.707 387.411,255.868 388.112,261.575L372.079,262.514C371.653,260.036 370.758,258.234 369.394,257.107C368.03,255.981 366.146,255.418 363.743,255.418C361.766,255.418 360.276,255.837 359.275,256.675C358.274,257.514 357.773,258.534 357.773,259.736C357.773,260.612 358.186,261.4 359.012,262.101C359.813,262.827 361.716,263.503 364.719,264.129C372.154,265.731 377.479,267.352 380.696,268.991C383.913,270.631 386.253,272.665 387.717,275.093C389.182,277.521 389.914,280.237 389.914,283.24C389.914,286.77 388.938,290.024 386.985,293.003C385.033,295.982 382.304,298.241 378.8,299.78C375.295,301.32 370.877,302.089 365.546,302.089C356.184,302.089 349.7,300.287 346.096,296.683C342.491,293.078 340.451,288.497 339.976,282.94Z" style="fill:white;fill-rule:nonzero;"/><path d="M172.271,81.903L232.918,81.903L232.918,20.939L284.064,20.939L284.064,81.903L345.028,81.903L345.028,133.049L284.064,133.049L284.064,193.696L232.918,193.696L232.918,133.049L172.271,133.049L172.271,81.903Z" style="fill-rule:nonzero;"/></g></svg>