<?xml version="1.0" encoding="UTF-8" standalone="no"?><!DOCTYPE svg PUBLIC "-//W3C//DTD SVG 1.1//EN" "http://www.w3.org/Graphics/SVG/1.1/DTD/svg11.dtd"><svg width="100%" height="100%" viewBox="0 0 512 512" version="1.1" xmlns="http://www.w3.org/2000/svg" xmlns:xlink="http://www.w3.org/1999/xlink" xml:space="preserve" xmlns:serif="http://www.serif.com/" style="fill-rule:evenodd;clip-rule:evenodd;stroke-linejoin:round;stroke-miterlimit:2;"><path d="M242.624,41.387L221.013,25.6L247.744,25.6L256,0L264.256,25.6L290.987,25.6L269.376,41.387L277.611,67.136L256,51.2L234.389,67.136L242.624,41.387ZM269.376,486.4L277.611,512L256,496.213L234.389,512L242.624,486.4L221.013,470.613L247.744,470.613L256,444.864L264.256,470.613L290.987,470.613L269.376,486.4ZM34.987,273.067L13.376,289.003L21.611,263.403L0,248.043L26.731,248.043L34.987,222.443L43.243,248.043L70.123,248.043L48.363,263.957L56.597,289.557L34.987,273.643L34.987,273.067ZM158.869,71.104L167.104,96.704L145.493,81.067L123.883,96.853L132.117,71.253L110.507,55.467L137.237,55.467L145.493,29.867L153.749,55.467L180.48,55.467L158.869,71.104ZM56.896,136.811L65.131,111.211L73.536,136.811L99.563,136.811L77.931,152.747L86.187,178.347L64.427,162.411L42.667,178.347L50.923,152.747L29.291,136.811L56.896,136.811ZM29.291,359.253L56.896,359.253L65.131,333.653L73.536,359.253L99.563,359.253L77.931,375.189L86.187,400.789L64.427,385.003L42.667,400.789L50.923,375.189L29.291,359.253ZM132.117,456.533L110.507,440.896L137.237,440.896L145.493,415.296L153.749,440.896L180.48,440.896L158.869,456.533L167.104,482.133L145.493,466.347L123.883,482.133L132.117,456.533ZM490.389,263.957L498.624,289.557L477.013,273.643L455.104,289.557L463.36,263.957L441.6,248.043L469.333,248.043L477.589,222.443L485.824,248.043L512,248.043L490.389,263.957ZM353.131,71.104L331.52,55.467L358.251,55.467L366.507,29.867L374.763,55.467L401.493,55.467L379.883,71.104L388.117,96.704L366.507,81.067L344.896,96.853L353.131,71.253L353.131,71.104ZM438.464,136.683L446.869,111.083L455.104,136.683L481.856,136.683L460.8,152.747L469.056,178.347L447.424,162.411L425.664,178.347L433.92,152.747L412.437,136.811L438.464,136.683ZM455.104,359.253L481.856,359.253L460.8,375.189L469.056,400.789L447.424,385.003L425.664,400.789L433.92,375.189L412.437,359.253L439.189,359.253L447.573,333.653L455.829,359.253L455.104,359.253ZM401.493,440.896L379.883,456.533L388.117,482.133L366.507,466.347L344.896,482.133L353.131,456.533L331.52,440.896L358.251,440.896L366.507,415.296L374.763,440.896L401.493,440.896Z" style="fill-rule:nonzero;"/><g id="PL"><path d="M109,290.136L109,221.864L144.161,221.864C150.681,221.864 155.664,222.423 159.11,223.54C162.556,224.658 165.335,226.73 167.446,229.757C169.557,232.785 170.613,236.471 170.613,240.818C170.613,244.606 169.806,247.873 168.191,250.621C166.577,253.369 164.357,255.596 161.532,257.304C159.731,258.391 157.263,259.291 154.127,260.005C156.642,260.844 158.473,261.683 159.622,262.521C160.398,263.081 161.524,264.277 162.999,266.11C164.473,267.943 165.459,269.356 165.956,270.35L176.155,290.136L152.311,290.136L141.041,269.273C139.612,266.572 138.339,264.817 137.222,264.01C135.7,262.955 133.977,262.427 132.052,262.427L130.19,262.427L130.19,290.136L109,290.136ZM130.19,249.527L139.085,249.527C140.047,249.527 141.91,249.216 144.673,248.595C146.07,248.316 147.211,247.602 148.096,246.453C148.981,245.304 149.423,243.985 149.423,242.495C149.423,240.29 148.725,238.598 147.328,237.418C145.93,236.239 143.307,235.649 139.457,235.649L130.19,235.649L130.19,249.527Z" style="fill-rule:nonzero;"/><path d="M178.623,256.047C178.623,244.901 181.728,236.223 187.937,230.014C194.147,223.804 202.793,220.7 213.877,220.7C225.24,220.7 233.995,223.75 240.143,229.851C246.29,235.951 249.364,244.497 249.364,255.488C249.364,263.467 248.021,270.01 245.335,275.117C242.65,280.224 238.769,284.198 233.693,287.039C228.617,289.88 222.291,291.3 214.715,291.3C207.016,291.3 200.643,290.074 195.598,287.621C190.553,285.169 186.462,281.288 183.327,275.979C180.191,270.67 178.623,264.026 178.623,256.047ZM199.719,256.14C199.719,263.032 201,267.984 203.562,270.996C206.123,274.007 209.608,275.513 214.017,275.513C218.55,275.513 222.058,274.038 224.542,271.089C227.025,268.139 228.267,262.846 228.267,255.208C228.267,248.782 226.971,244.086 224.379,241.121C221.786,238.156 218.27,236.673 213.83,236.673C209.577,236.673 206.162,238.179 203.585,241.191C201.008,244.202 199.719,249.185 199.719,256.14Z" style="fill-rule:nonzero;"/><path d="M261.006,221.864L292.348,221.864C298.527,221.864 303.518,222.702 307.321,224.379C311.124,226.055 314.268,228.461 316.751,231.597C319.235,234.733 321.036,238.381 322.153,242.541C323.271,246.701 323.83,251.11 323.83,255.767C323.83,263.063 323,268.722 321.339,272.742C319.677,276.763 317.372,280.131 314.423,282.848C311.473,285.565 308.307,287.373 304.922,288.273C300.296,289.515 296.105,290.136 292.348,290.136L261.006,290.136L261.006,221.864ZM282.103,237.325L282.103,274.628L287.272,274.628C291.681,274.628 294.817,274.139 296.679,273.161C298.542,272.183 300.001,270.476 301.057,268.038C302.113,265.601 302.64,261.651 302.64,256.186C302.64,248.952 301.461,244 299.101,241.33C296.741,238.66 292.83,237.325 287.365,237.325L282.103,237.325Z" style="fill-rule:nonzero;"/><path d="M332.259,256.047C332.259,244.901 335.364,236.223 341.573,230.014C347.783,223.804 356.429,220.7 367.513,220.7C378.876,220.7 387.632,223.75 393.779,229.851C399.926,235.951 403,244.497 403,255.488C403,263.467 401.657,270.01 398.972,275.117C396.286,280.224 392.405,284.198 387.329,287.039C382.253,289.88 375.927,291.3 368.351,291.3C360.652,291.3 354.279,290.074 349.234,287.621C344.189,285.169 340.099,281.288 336.963,275.979C333.827,270.67 332.259,264.026 332.259,256.047ZM353.356,256.14C353.356,263.032 354.636,267.984 357.198,270.996C359.759,274.007 363.244,275.513 367.653,275.513C372.186,275.513 375.694,274.038 378.178,271.089C380.662,268.139 381.904,262.846 381.904,255.208C381.904,248.782 380.607,244.086 378.015,241.121C375.422,238.156 371.906,236.673 367.467,236.673C363.213,236.673 359.798,238.179 357.221,241.191C354.644,244.202 353.356,249.185 353.356,256.14Z" style="fill-rule:nonzero;"/></g></svg>