<?xml version="1.0" encoding="UTF-8" standalone="no"?><!DOCTYPE svg PUBLIC "-//W3C//DTD SVG 1.1//EN" "http://www.w3.org/Graphics/SVG/1.1/DTD/svg11.dtd"><svg width="512px" height="512px" version="1.1" xmlns="http://www.w3.org/2000/svg" xmlns:xlink="http://www.w3.org/1999/xlink" xml:space="preserve" xmlns:serif="http://www.serif.com/" style="fill-rule:evenodd;clip-rule:evenodd;stroke-linejoin:round;stroke-miterlimit:2;"><path d="M242.624,41.387L221.013,25.6L247.744,25.6L256,0L264.256,25.6L290.987,25.6L269.376,41.387L277.611,67.136L256,51.2L234.389,67.136L242.624,41.387ZM269.376,486.4L277.611,512L256,496.213L234.389,512L242.624,486.4L221.013,470.613L247.744,470.613L256,444.864L264.256,470.613L290.987,470.613L269.376,486.4ZM34.987,273.067L13.376,289.003L21.611,263.403L0,248.043L26.731,248.043L34.987,222.443L43.243,248.043L70.123,248.043L48.363,263.957L56.597,289.557L34.987,273.643L34.987,273.067ZM158.869,71.104L167.104,96.704L145.493,81.067L123.883,96.853L132.117,71.253L110.507,55.467L137.237,55.467L145.493,29.867L153.749,55.467L180.48,55.467L158.869,71.104ZM56.896,136.811L65.131,111.211L73.536,136.811L99.563,136.811L77.931,152.747L86.187,178.347L64.427,162.411L42.667,178.347L50.923,152.747L29.291,136.811L56.896,136.811ZM29.291,359.253L56.896,359.253L65.131,333.653L73.536,359.253L99.563,359.253L77.931,375.189L86.187,400.789L64.427,385.003L42.667,400.789L50.923,375.189L29.291,359.253ZM132.117,456.533L110.507,440.896L137.237,440.896L145.493,415.296L153.749,440.896L180.48,440.896L158.869,456.533L167.104,482.133L145.493,466.347L123.883,482.133L132.117,456.533ZM490.389,263.957L498.624,289.557L477.013,273.643L455.104,289.557L463.36,263.957L441.6,248.043L469.333,248.043L477.589,222.443L485.824,248.043L512,248.043L490.389,263.957ZM353.131,71.104L331.52,55.467L358.251,55.467L366.507,29.867L374.763,55.467L401.493,55.467L379.883,71.104L388.117,96.704L366.507,81.067L344.896,96.853L353.131,71.253L353.131,71.104ZM438.464,136.683L446.869,111.083L455.104,136.683L481.856,136.683L460.8,152.747L469.056,178.347L447.424,162.411L425.664,178.347L433.92,152.747L412.437,136.811L438.464,136.683ZM455.104,359.253L481.856,359.253L460.8,375.189L469.056,400.789L447.424,385.003L425.664,400.789L433.92,375.189L412.437,359.253L439.189,359.253L447.573,333.653L455.829,359.253L455.104,359.253ZM401.493,440.896L379.883,456.533L388.117,482.133L366.507,466.347L344.896,482.133L353.131,456.533L331.52,440.896L358.251,440.896L366.507,415.296L374.763,440.896L401.493,440.896Z" style="fill-rule:nonzero;"/><g id="BG"><path d="M109,249.064C109,237.695 112.167,228.844 118.501,222.51C124.835,216.176 133.654,213.009 144.96,213.009C156.551,213.009 165.482,216.121 171.752,222.344C178.023,228.567 181.158,237.284 181.158,248.494C181.158,256.633 179.788,263.308 177.049,268.517C174.31,273.727 170.351,277.78 165.173,280.678C159.995,283.576 153.543,285.025 145.815,285.025C137.961,285.025 131.461,283.774 126.315,281.272C121.169,278.77 116.996,274.811 113.798,269.396C110.599,263.981 109,257.203 109,249.064ZM130.519,249.159C130.519,256.19 131.825,261.241 134.438,264.313C137.051,267.385 140.606,268.921 145.103,268.921C149.726,268.921 153.305,267.417 155.839,264.408C158.372,261.4 159.639,256 159.639,248.209C159.639,241.654 158.317,236.864 155.672,233.84C153.028,230.815 149.441,229.303 144.913,229.303C140.574,229.303 137.09,230.839 134.462,233.911C131.833,236.983 130.519,242.066 130.519,249.159Z" style="fill-rule:nonzero;"/><path d="M192.654,214.197L228.424,214.197C236.215,214.197 242.05,216.049 245.929,219.755C249.809,223.46 251.748,228.733 251.748,235.573C251.748,242.604 249.635,248.099 245.407,252.057C241.179,256.016 234.726,257.995 226.049,257.995L214.268,257.995L214.268,283.837L192.654,283.837L192.654,214.197ZM214.268,243.887L219.541,243.887C223.69,243.887 226.603,243.166 228.282,241.725C229.96,240.284 230.799,238.439 230.799,236.191C230.799,234.006 230.071,232.153 228.614,230.633C227.157,229.113 224.418,228.353 220.396,228.353L214.268,228.353L214.268,243.887Z" style="fill-rule:nonzero;"/><path d="M306.663,245.977C315.023,248.225 319.204,253.482 319.204,261.748C319.204,268.557 316.583,274.138 311.342,278.493C306.101,282.847 298.698,285.025 289.134,285.025C272.793,285.025 262.643,278.168 258.684,264.456L279.016,262.936C280.156,267.781 283.402,270.204 288.754,270.204C291.731,270.204 293.987,269.459 295.523,267.971C297.059,266.482 297.827,264.408 297.827,261.748C297.827,259.183 296.861,257.101 294.929,255.501C292.997,253.902 290.353,253.102 286.996,253.102L281.153,253.102L281.153,240.656L285.761,240.656C288.516,240.656 290.678,239.936 292.245,238.495C293.813,237.054 294.597,235.051 294.597,232.486C294.597,228.717 292.237,226.833 287.519,226.833C282.642,226.833 279.807,229.002 279.016,233.341L259.777,231.108C262.912,219.042 272.286,213.009 287.899,213.009C296.544,213.009 303.322,214.688 308.23,218.045C313.139,221.402 315.593,225.914 315.593,231.583C315.593,238.424 312.616,243.222 306.663,245.977Z" style="fill-rule:nonzero;"/><path d="M403,298.991L385.661,298.991L385.661,283.837L341.198,283.837L341.198,298.991L323.906,298.991L323.906,267.781L331.079,267.781C335.101,256.538 337.112,243.855 337.112,229.73L337.112,214.197L395.494,214.197L395.494,267.781L403,267.781L403,298.991ZM373.975,267.781L373.975,231.298L356.684,231.298L356.684,232.201C356.684,241.828 355.053,253.688 351.791,267.781L373.975,267.781Z" style="fill-rule:nonzero;"/></g></svg>