<?xml version="1.0" encoding="UTF-8" standalone="no"?><!DOCTYPE svg PUBLIC "-//W3C//DTD SVG 1.1//EN" "http://www.w3.org/Graphics/SVG/1.1/DTD/svg11.dtd"><svg width="100%" height="100%" viewBox="0 0 512 512" version="1.1" xmlns="http://www.w3.org/2000/svg" xmlns:xlink="http://www.w3.org/1999/xlink" xml:space="preserve" xmlns:serif="http://www.serif.com/" style="fill-rule:evenodd;clip-rule:evenodd;stroke-linejoin:round;stroke-miterlimit:2;"><path d="M242.624,41.387L221.013,25.6L247.744,25.6L256,0L264.256,25.6L290.987,25.6L269.376,41.387L277.611,67.136L256,51.2L234.389,67.136L242.624,41.387ZM269.376,486.4L277.611,512L256,496.213L234.389,512L242.624,486.4L221.013,470.613L247.744,470.613L256,444.864L264.256,470.613L290.987,470.613L269.376,486.4ZM34.987,273.067L13.376,289.003L21.611,263.403L0,248.043L26.731,248.043L34.987,222.443L43.243,248.043L70.123,248.043L48.363,263.957L56.597,289.557L34.987,273.643L34.987,273.067ZM158.869,71.104L167.104,96.704L145.493,81.067L123.883,96.853L132.117,71.253L110.507,55.467L137.237,55.467L145.493,29.867L153.749,55.467L180.48,55.467L158.869,71.104ZM56.896,136.811L65.131,111.211L73.536,136.811L99.563,136.811L77.931,152.747L86.187,178.347L64.427,162.411L42.667,178.347L50.923,152.747L29.291,136.811L56.896,136.811ZM29.291,359.253L56.896,359.253L65.131,333.653L73.536,359.253L99.563,359.253L77.931,375.189L86.187,400.789L64.427,385.003L42.667,400.789L50.923,375.189L29.291,359.253ZM132.117,456.533L110.507,440.896L137.237,440.896L145.493,415.296L153.749,440.896L180.48,440.896L158.869,456.533L167.104,482.133L145.493,466.347L123.883,482.133L132.117,456.533ZM490.389,263.957L498.624,289.557L477.013,273.643L455.104,289.557L463.36,263.957L441.6,248.043L469.333,248.043L477.589,222.443L485.824,248.043L512,248.043L490.389,263.957ZM353.131,71.104L331.52,55.467L358.251,55.467L366.507,29.867L374.763,55.467L401.493,55.467L379.883,71.104L388.117,96.704L366.507,81.067L344.896,96.853L353.131,71.253L353.131,71.104ZM438.464,136.683L446.869,111.083L455.104,136.683L481.856,136.683L460.8,152.747L469.056,178.347L447.424,162.411L425.664,178.347L433.92,152.747L412.437,136.811L438.464,136.683ZM455.104,359.253L481.856,359.253L460.8,375.189L469.056,400.789L447.424,385.003L425.664,400.789L433.92,375.189L412.437,359.253L439.189,359.253L447.573,333.653L455.829,359.253L455.104,359.253ZM401.493,440.896L379.883,456.533L388.117,482.133L366.507,466.347L344.896,482.133L353.131,456.533L331.52,440.896L358.251,440.896L366.507,415.296L374.763,440.896L401.493,440.896Z" style="fill-rule:nonzero;"/><g id="HU"><path d="M193.241,288.058L169.092,288.058L165.769,299.384L144.1,299.384L169.887,230.775L193.007,230.775L218.794,299.384L196.61,299.384L193.241,288.058ZM188.795,273.223L181.213,248.559L173.678,273.223L188.795,273.223ZM180.839,212.616L197.219,212.616L182.102,226.609L172.976,226.609L180.839,212.616Z" style="fill-rule:nonzero;"/><path d="M267.794,288.058L243.645,288.058L240.322,299.384L218.653,299.384L244.44,230.775L267.56,230.775L293.347,299.384L271.163,299.384L267.794,288.058ZM263.348,273.223L255.766,248.559L248.231,273.223L263.348,273.223Z" style="fill-rule:nonzero;"/><path d="M300.414,299.384L300.414,230.775L335.748,230.775C342.3,230.775 347.308,231.336 350.771,232.459C354.234,233.583 357.026,235.665 359.148,238.707C361.27,241.749 362.33,245.454 362.33,249.822C362.33,253.629 361.519,256.913 359.897,259.674C358.274,262.435 356.044,264.674 353.204,266.39C351.395,267.482 348.914,268.387 345.763,269.104C348.29,269.947 350.131,270.79 351.286,271.633C352.066,272.195 353.197,273.397 354.679,275.239C356.161,277.081 357.151,278.501 357.65,279.5L367.9,299.384L343.938,299.384L332.612,278.417C331.177,275.703 329.898,273.94 328.775,273.129C327.246,272.068 325.514,271.538 323.58,271.538L321.708,271.538L321.708,299.384L300.414,299.384ZM321.708,258.574L330.647,258.574C331.614,258.574 333.486,258.262 336.263,257.638C337.667,257.357 338.813,256.64 339.702,255.485C340.592,254.331 341.036,253.005 341.036,251.507C341.036,249.292 340.334,247.592 338.93,246.406C337.526,245.22 334.89,244.628 331.021,244.628L321.708,244.628L321.708,258.574Z" style="fill-rule:nonzero;"/></g></svg>