<?xml version="1.0" encoding="UTF-8" standalone="no"?><!DOCTYPE svg PUBLIC "-//W3C//DTD SVG 1.1//EN" "http://www.w3.org/Graphics/SVG/1.1/DTD/svg11.dtd"><svg width="100%" height="100%" viewBox="0 0 512 512" version="1.1" xmlns="http://www.w3.org/2000/svg" xmlns:xlink="http://www.w3.org/1999/xlink" xml:space="preserve" xmlns:serif="http://www.serif.com/" style="fill-rule:evenodd;clip-rule:evenodd;stroke-linejoin:round;stroke-miterlimit:2;"><path d="M242.624,41.387L221.013,25.6L247.744,25.6L256,0L264.256,25.6L290.987,25.6L269.376,41.387L277.611,67.136L256,51.2L234.389,67.136L242.624,41.387ZM269.376,486.4L277.611,512L256,496.213L234.389,512L242.624,486.4L221.013,470.613L247.744,470.613L256,444.864L264.256,470.613L290.987,470.613L269.376,486.4ZM34.987,273.067L13.376,289.003L21.611,263.403L0,248.043L26.731,248.043L34.987,222.443L43.243,248.043L70.123,248.043L48.363,263.957L56.597,289.557L34.987,273.643L34.987,273.067ZM158.869,71.104L167.104,96.704L145.493,81.067L123.883,96.853L132.117,71.253L110.507,55.467L137.237,55.467L145.493,29.867L153.749,55.467L180.48,55.467L158.869,71.104ZM56.896,136.811L65.131,111.211L73.536,136.811L99.563,136.811L77.931,152.747L86.187,178.347L64.427,162.411L42.667,178.347L50.923,152.747L29.291,136.811L56.896,136.811ZM29.291,359.253L56.896,359.253L65.131,333.653L73.536,359.253L99.563,359.253L77.931,375.189L86.187,400.789L64.427,385.003L42.667,400.789L50.923,375.189L29.291,359.253ZM132.117,456.533L110.507,440.896L137.237,440.896L145.493,415.296L153.749,440.896L180.48,440.896L158.869,456.533L167.104,482.133L145.493,466.347L123.883,482.133L132.117,456.533ZM490.389,263.957L498.624,289.557L477.013,273.643L455.104,289.557L463.36,263.957L441.6,248.043L469.333,248.043L477.589,222.443L485.824,248.043L512,248.043L490.389,263.957ZM353.131,71.104L331.52,55.467L358.251,55.467L366.507,29.867L374.763,55.467L401.493,55.467L379.883,71.104L388.117,96.704L366.507,81.067L344.896,96.853L353.131,71.253L353.131,71.104ZM438.464,136.683L446.869,111.083L455.104,136.683L481.856,136.683L460.8,152.747L469.056,178.347L447.424,162.411L425.664,178.347L433.92,152.747L412.437,136.811L438.464,136.683ZM455.104,359.253L481.856,359.253L460.8,375.189L469.056,400.789L447.424,385.003L425.664,400.789L433.92,375.189L412.437,359.253L439.189,359.253L447.573,333.653L455.829,359.253L455.104,359.253ZM401.493,440.896L379.883,456.533L388.117,482.133L366.507,466.347L344.896,482.133L353.131,456.533L331.52,440.896L358.251,440.896L366.507,415.296L374.763,440.896L401.493,440.896Z" style="fill-rule:nonzero;"/><g id="LV"><path d="M109,221.706L131.176,221.706L146.616,271.065L161.821,221.706L183.342,221.706L157.891,290.294L134.919,290.294L109,221.706Z" style="fill-rule:nonzero;"/><path d="M190.594,221.706L222.081,221.706C228.287,221.706 233.301,222.548 237.122,224.233C240.943,225.917 244.101,228.334 246.596,231.484C249.091,234.635 250.9,238.299 252.023,242.479C253.146,246.658 253.708,251.088 253.708,255.766C253.708,263.096 252.873,268.78 251.204,272.819C249.536,276.859 247.22,280.243 244.257,282.972C241.294,285.701 238.112,287.518 234.713,288.422C230.065,289.67 225.855,290.294 222.081,290.294L190.594,290.294L190.594,221.706ZM211.788,237.239L211.788,274.714L216.981,274.714C221.41,274.714 224.56,274.223 226.432,273.24C228.303,272.258 229.769,270.542 230.829,268.094C231.89,265.646 232.42,261.677 232.42,256.187C232.42,248.92 231.235,243.945 228.864,241.263C226.494,238.58 222.564,237.239 217.074,237.239L211.788,237.239Z" style="fill-rule:nonzero;"/><path d="M302.926,278.972L278.785,278.972L275.463,290.294L253.801,290.294L279.58,221.706L302.692,221.706L328.471,290.294L306.294,290.294L302.926,278.972ZM298.481,264.141L290.902,239.485L283.37,264.141L298.481,264.141Z" style="fill-rule:nonzero;"/><path d="M335.535,290.294L335.535,221.706L370.858,221.706C377.408,221.706 382.414,222.268 385.877,223.391C389.339,224.513 392.13,226.595 394.251,229.636C396.372,232.677 397.433,236.381 397.433,240.748C397.433,244.553 396.622,247.836 395,250.596C393.378,253.357 391.148,255.595 388.309,257.31C386.5,258.402 384.021,259.306 380.87,260.024C383.397,260.866 385.237,261.709 386.391,262.551C387.171,263.113 388.302,264.315 389.783,266.157C391.265,267.998 392.255,269.418 392.754,270.417L403,290.294L379.046,290.294L367.724,269.334C366.289,266.62 365.01,264.858 363.887,264.047C362.359,262.987 360.628,262.456 358.694,262.456L356.823,262.456L356.823,290.294L335.535,290.294ZM356.823,249.497L365.759,249.497C366.726,249.497 368.597,249.185 371.373,248.561C372.777,248.28 373.923,247.563 374.812,246.409C375.701,245.255 376.145,243.929 376.145,242.432C376.145,240.218 375.443,238.518 374.04,237.333C372.636,236.147 370.001,235.555 366.133,235.555L356.823,235.555L356.823,249.497Z" style="fill-rule:nonzero;"/></g></svg>