<svg xmlns="http://www.w3.org/2000/svg" xml:space="preserve" width="512" height="512" style="fill-rule:evenodd;clip-rule:evenodd;stroke-linejoin:round;stroke-miterlimit:2"><path d="M455.829 359.253h26.027L460.8 375.189l8.256 25.6-21.632-15.786-21.76 15.786 8.256-25.6-21.483-15.936h26.752l8.384-25.6zM242.624 41.387 221.013 25.6h26.731L256 0l8.256 25.6h26.731l-21.611 15.787 8.235 25.749L256 51.2l-21.611 15.936zM269.376 486.4l8.235 25.6L256 496.213 234.389 512l8.235-25.6-21.611-15.787h26.731L256 444.864l8.256 25.749h26.731zM34.987 273.067l-21.611 15.936 8.235-25.6L0 248.043h26.731l8.256-25.6 8.256 25.6h26.88l-21.76 15.914 8.234 25.6-21.61-15.914zM158.869 71.104l8.235 25.6-21.611-15.637-21.61 15.786 8.234-25.6-21.61-15.786h26.73l8.256-25.6 8.256 25.6h26.731zM56.896 136.811l8.235-25.6 8.405 25.6h26.027l-21.632 15.936 8.256 25.6-21.76-15.936-21.76 15.936 8.256-25.6-21.632-15.936zM29.291 359.253h27.605l8.235-25.6 8.405 25.6h26.027l-21.632 15.936 8.256 25.6-21.76-15.786-21.76 15.786 8.256-25.6zm102.826 97.28-21.61-15.637h26.73l8.256-25.6 8.256 25.6h26.731l-21.611 15.637 8.235 25.6-21.611-15.786-21.61 15.786zm358.272-192.576 8.235 25.6-21.611-15.914-21.909 15.914 8.256-25.6-21.76-15.914h27.733l8.256-25.6 8.235 25.6H512zM353.131 71.104 331.52 55.467h26.731l8.256-25.6 8.256 25.6h26.73l-21.61 15.637 8.234 25.6-21.61-15.637-21.611 15.786 8.235-25.6zm85.333 65.579 8.405-25.6 8.235 25.6h26.752L460.8 152.747l8.256 25.6-21.632-15.936-21.76 15.936 8.256-25.6-21.483-15.936zm-36.971 304.213-21.61 15.637 8.234 25.6-21.61-15.786-21.611 15.786 8.235-25.6-21.611-15.637h26.731l8.256-25.6 8.256 25.6zm-69.857-219.84c20.421 6.278 37.817 22.578 37.817 46.289v90.763c0 30.859-29.535 49.163-56.726 49.163H199.273c-27.191 0-56.726-18.304-56.726-49.163v-90.763c0-23.711 17.396-40.011 37.817-46.289v-40.692c0-41.492 34.144-75.635 75.636-75.635s75.636 34.143 75.636 75.635zm-24.694 69.156v46.49h20.215q3.634 0 8.11-1.268 3.274-.92 6.128-3.695t4.46-6.881q1.607-4.107 1.607-11.559 0-4.758-1.081-9.007-1.082-4.25-3.485-7.452t-6.082-4.915-9.657-1.713zm13.607 10.529h3.394q5.288 0 7.569 2.727 2.283 2.727 2.283 10.116 0 5.581-1.021 8.071-1.022 2.489-2.823 3.488-1.803.999-6.068.999h-3.334zm-156.011 35.961h13.667v-18.869h1.201q1.863 0 3.334 1.079 1.082.824 2.463 3.583l7.269 14.207h15.379l-6.578-13.473q-.48-1.015-1.907-2.887t-2.178-2.444q-1.111-.856-3.544-1.714 3.033-.729 4.775-1.839a12.6 12.6 0 0 0 4.296-4.551q1.562-2.807 1.562-6.675 0-4.44-2.043-7.532t-5.376-4.233q-3.335-1.142-9.642-1.142h-22.678zm13.667-27.653v-9.45h5.977q3.725 0 5.076 1.205 1.352 1.205 1.352 3.457 0 1.522-.856 2.695-.857 1.173-2.208 1.459-2.673.634-3.604.634zM256 142.547c-20.746 0-37.818 17.071-37.818 37.817v37.818h75.636v-37.818c0-20.746-17.072-37.817-37.818-37.817m6.278 147.665v46.49h13.666v-17.251h7.45q8.229 0 12.24-3.964 4.01-3.964 4.009-11.004 0-6.85-3.679-10.561-3.68-3.71-11.069-3.71zm13.666 19.82v-10.37h3.875q3.814 0 5.197 1.523 1.381 1.521 1.381 3.71 0 2.251-1.592 3.694-1.591 1.443-5.526 1.443zm-42.712 9.831h9.101v4.376q-2.673 1.681-4.746 2.379a13.6 13.6 0 0 1-4.355.697q-4.806 0-7.494-3.234-2.688-3.236-2.688-10.782 0-7.104 2.658-10.386t7.134-3.282q3.003 0 4.941 1.395 1.936 1.396 2.748 4.027l13.126-2.473q-1.201-4.503-3.589-7.437-2.388-2.933-6.008-4.328t-10.918-1.396q-7.569 0-12.045 2.252-5.737 2.918-8.71 8.546-2.974 5.63-2.974 13.24 0 7.23 2.718 12.812t7.66 8.404q4.941 2.822 12.78 2.822 6.369 0 11.009-1.57t10.678-5.914v-19.82h-21.026z"/></svg>