<?xml version="1.0" encoding="UTF-8" standalone="no"?><!DOCTYPE svg PUBLIC "-//W3C//DTD SVG 1.1//EN" "http://www.w3.org/Graphics/SVG/1.1/DTD/svg11.dtd"><svg width="100%" height="100%" viewBox="0 0 512 512" version="1.1" xmlns="http://www.w3.org/2000/svg" xmlns:xlink="http://www.w3.org/1999/xlink" xml:space="preserve" xmlns:serif="http://www.serif.com/" style="fill-rule:evenodd;clip-rule:evenodd;stroke-linejoin:round;stroke-miterlimit:2;"><path d="M242.624,41.387L221.013,25.6L247.744,25.6L256,0L264.256,25.6L290.987,25.6L269.376,41.387L277.611,67.136L256,51.2L234.389,67.136L242.624,41.387ZM269.376,486.4L277.611,512L256,496.213L234.389,512L242.624,486.4L221.013,470.613L247.744,470.613L256,444.864L264.256,470.613L290.987,470.613L269.376,486.4ZM34.987,273.067L13.376,289.003L21.611,263.403L0,248.043L26.731,248.043L34.987,222.443L43.243,248.043L70.123,248.043L48.363,263.957L56.597,289.557L34.987,273.643L34.987,273.067ZM158.869,71.104L167.104,96.704L145.493,81.067L123.883,96.853L132.117,71.253L110.507,55.467L137.237,55.467L145.493,29.867L153.749,55.467L180.48,55.467L158.869,71.104ZM56.896,136.811L65.131,111.211L73.536,136.811L99.563,136.811L77.931,152.747L86.187,178.347L64.427,162.411L42.667,178.347L50.923,152.747L29.291,136.811L56.896,136.811ZM29.291,359.253L56.896,359.253L65.131,333.653L73.536,359.253L99.563,359.253L77.931,375.189L86.187,400.789L64.427,385.003L42.667,400.789L50.923,375.189L29.291,359.253ZM132.117,456.533L110.507,440.896L137.237,440.896L145.493,415.296L153.749,440.896L180.48,440.896L158.869,456.533L167.104,482.133L145.493,466.347L123.883,482.133L132.117,456.533ZM490.389,263.957L498.624,289.557L477.013,273.643L455.104,289.557L463.36,263.957L441.6,248.043L469.333,248.043L477.589,222.443L485.824,248.043L512,248.043L490.389,263.957ZM353.131,71.104L331.52,55.467L358.251,55.467L366.507,29.867L374.763,55.467L401.493,55.467L379.883,71.104L388.117,96.704L366.507,81.067L344.896,96.853L353.131,71.253L353.131,71.104ZM438.464,136.683L446.869,111.083L455.104,136.683L481.856,136.683L460.8,152.747L469.056,178.347L447.424,162.411L425.664,178.347L433.92,152.747L412.437,136.811L438.464,136.683ZM455.104,359.253L481.856,359.253L460.8,375.189L469.056,400.789L447.424,385.003L425.664,400.789L433.92,375.189L412.437,359.253L439.189,359.253L447.573,333.653L455.829,359.253L455.104,359.253ZM401.493,440.896L379.883,456.533L388.117,482.133L366.507,466.347L344.896,482.133L353.131,456.533L331.52,440.896L358.251,440.896L366.507,415.296L374.763,440.896L401.493,440.896Z" style="fill-rule:nonzero;"/><g id="CZ"><path d="M138.52,264.796C138.52,253.261 141.734,244.28 148.16,237.854C154.586,231.428 163.535,228.215 175.005,228.215C186.765,228.215 195.826,231.371 202.188,237.685C208.55,243.999 211.731,252.843 211.731,264.218C211.731,272.475 210.342,279.247 207.562,284.532C204.783,289.818 200.767,293.931 195.513,296.871C190.26,299.811 183.713,301.281 175.873,301.281C167.904,301.281 161.31,300.012 156.088,297.473C150.867,294.935 146.634,290.919 143.388,285.424C140.143,279.93 138.52,273.054 138.52,264.796ZM160.354,264.892C160.354,272.025 161.679,277.15 164.33,280.267C166.981,283.384 170.587,284.942 175.15,284.942C179.841,284.942 183.472,283.416 186.042,280.363C188.613,277.311 189.898,271.833 189.898,263.928C189.898,257.277 188.557,252.417 185.874,249.349C183.191,246.28 179.552,244.746 174.957,244.746C170.555,244.746 167.021,246.304 164.354,249.421C161.687,252.538 160.354,257.695 160.354,264.892Z" style="fill-rule:nonzero;"/><path d="M220.744,264.796C220.744,253.261 223.957,244.28 230.383,237.854C236.81,231.428 245.758,228.215 257.229,228.215C268.989,228.215 278.05,231.371 284.412,237.685C290.774,243.999 293.955,252.843 293.955,264.218C293.955,272.475 292.565,279.247 289.786,284.532C287.007,289.818 282.99,293.931 277.737,296.871C272.483,299.811 265.937,301.281 258.097,301.281C250.128,301.281 243.533,300.012 238.312,297.473C233.09,294.935 228.857,290.919 225.612,285.424C222.367,279.93 220.744,273.054 220.744,264.796ZM242.577,264.892C242.577,272.025 243.903,277.15 246.553,280.267C249.204,283.384 252.811,284.942 257.374,284.942C262.065,284.942 265.696,283.416 268.266,280.363C270.837,277.311 272.122,271.833 272.122,263.928C272.122,257.277 270.78,252.417 268.097,249.349C265.414,246.28 261.776,244.746 257.181,244.746C252.779,244.746 249.244,246.304 246.578,249.421C243.911,252.538 242.577,257.695 242.577,264.892Z" style="fill-rule:nonzero;"/><path d="M351.695,229.42L373.48,229.42L373.48,271.516C373.48,275.69 372.829,279.631 371.528,283.34C370.226,287.048 368.186,290.291 365.407,293.069C362.627,295.847 359.711,297.797 356.659,298.921C352.418,300.494 347.325,301.281 341.38,301.281C337.942,301.281 334.191,301.04 330.127,300.558C326.062,300.076 322.664,299.121 319.933,297.692C317.202,296.264 314.704,294.233 312.438,291.6C310.173,288.967 308.623,286.253 307.787,283.46C306.438,278.965 305.763,274.983 305.763,271.516L305.763,229.42L327.548,229.42L327.548,272.518C327.548,276.371 328.616,279.38 330.753,281.547C332.89,283.714 335.854,284.798 339.645,284.798C343.405,284.798 346.353,283.73 348.49,281.595C350.626,279.46 351.695,276.434 351.695,272.518L351.695,229.42ZM339.115,210.719L355.984,210.719L340.417,225.13L331.018,225.13L339.115,210.719Z" style="fill-rule:nonzero;"/></g></svg>
