<?xml version="1.0" encoding="UTF-8" standalone="no"?><!DOCTYPE svg PUBLIC "-//W3C//DTD SVG 1.1//EN" "http://www.w3.org/Graphics/SVG/1.1/DTD/svg11.dtd"><svg width="100%" height="100%" viewBox="0 0 512 512" version="1.1" xmlns="http://www.w3.org/2000/svg" xmlns:xlink="http://www.w3.org/1999/xlink" xml:space="preserve" xmlns:serif="http://www.serif.com/" style="fill-rule:evenodd;clip-rule:evenodd;stroke-linejoin:round;stroke-miterlimit:2;"><path d="M242.624,41.387L221.013,25.6L247.744,25.6L256,0L264.256,25.6L290.987,25.6L269.376,41.387L277.611,67.136L256,51.2L234.389,67.136L242.624,41.387ZM269.376,486.4L277.611,512L256,496.213L234.389,512L242.624,486.4L221.013,470.613L247.744,470.613L256,444.864L264.256,470.613L290.987,470.613L269.376,486.4ZM34.987,273.067L13.376,289.003L21.611,263.403L0,248.043L26.731,248.043L34.987,222.443L43.243,248.043L70.123,248.043L48.363,263.957L56.597,289.557L34.987,273.643L34.987,273.067ZM158.869,71.104L167.104,96.704L145.493,81.067L123.883,96.853L132.117,71.253L110.507,55.467L137.237,55.467L145.493,29.867L153.749,55.467L180.48,55.467L158.869,71.104ZM56.896,136.811L65.131,111.211L73.536,136.811L99.563,136.811L77.931,152.747L86.187,178.347L64.427,162.411L42.667,178.347L50.923,152.747L29.291,136.811L56.896,136.811ZM29.291,359.253L56.896,359.253L65.131,333.653L73.536,359.253L99.563,359.253L77.931,375.189L86.187,400.789L64.427,385.003L42.667,400.789L50.923,375.189L29.291,359.253ZM132.117,456.533L110.507,440.896L137.237,440.896L145.493,415.296L153.749,440.896L180.48,440.896L158.869,456.533L167.104,482.133L145.493,466.347L123.883,482.133L132.117,456.533ZM490.389,263.957L498.624,289.557L477.013,273.643L455.104,289.557L463.36,263.957L441.6,248.043L469.333,248.043L477.589,222.443L485.824,248.043L512,248.043L490.389,263.957ZM353.131,71.104L331.52,55.467L358.251,55.467L366.507,29.867L374.763,55.467L401.493,55.467L379.883,71.104L388.117,96.704L366.507,81.067L344.896,96.853L353.131,71.253L353.131,71.104ZM438.464,136.683L446.869,111.083L455.104,136.683L481.856,136.683L460.8,152.747L469.056,178.347L447.424,162.411L425.664,178.347L433.92,152.747L412.437,136.811L438.464,136.683ZM455.104,359.253L481.856,359.253L460.8,375.189L469.056,400.789L447.424,385.003L425.664,400.789L433.92,375.189L412.437,359.253L439.189,359.253L447.573,333.653L455.829,359.253L455.104,359.253ZM401.493,440.896L379.883,456.533L388.117,482.133L366.507,466.347L344.896,482.133L353.131,456.533L331.52,440.896L358.251,440.896L366.507,415.296L374.763,440.896L401.493,440.896Z" style="fill-rule:nonzero;"/><g id="SE"><path d="M158,221.695L189.497,221.695C195.706,221.695 200.721,222.538 204.543,224.223C208.365,225.907 211.524,228.325 214.02,231.477C216.516,234.628 218.326,238.294 219.449,242.475C220.572,246.656 221.134,251.086 221.134,255.766C221.134,263.098 220.299,268.784 218.63,272.825C216.961,276.865 214.644,280.25 211.68,282.98C208.716,285.71 205.534,287.528 202.133,288.433C197.484,289.681 193.272,290.305 189.497,290.305L158,290.305L158,221.695ZM179.201,237.233L179.201,274.72L184.395,274.72C188.826,274.72 191.977,274.229 193.849,273.246C195.721,272.263 197.188,270.547 198.248,268.098C199.309,265.649 199.84,261.678 199.84,256.187C199.84,248.918 198.654,243.941 196.283,241.258C193.911,238.575 189.98,237.233 184.489,237.233L179.201,237.233Z" style="fill-rule:nonzero;"/><path d="M228.575,267.606L248.746,266.343C249.183,269.619 250.072,272.115 251.414,273.831C253.598,276.608 256.718,277.996 260.774,277.996C263.8,277.996 266.132,277.286 267.77,275.867C269.408,274.447 270.227,272.801 270.227,270.929C270.227,269.151 269.447,267.56 267.887,266.156C266.327,264.752 262.708,263.426 257.03,262.178C247.732,260.087 241.102,257.31 237.139,253.847C233.146,250.384 231.149,245.969 231.149,240.603C231.149,237.077 232.171,233.746 234.214,230.611C236.258,227.475 239.331,225.01 243.434,223.216C247.537,221.422 253.161,220.525 260.306,220.525C269.073,220.525 275.758,222.156 280.36,225.416C284.962,228.676 287.699,233.863 288.573,240.977L268.589,242.147C268.059,239.058 266.943,236.812 265.243,235.408C263.543,234.004 261.195,233.302 258.2,233.302C255.735,233.302 253.878,233.824 252.63,234.87C251.382,235.915 250.758,237.186 250.758,238.684C250.758,239.776 251.273,240.759 252.303,241.632C253.301,242.537 255.672,243.379 259.416,244.16C268.683,246.156 275.321,248.177 279.33,250.22C283.339,252.264 286.256,254.799 288.082,257.825C289.907,260.852 290.819,264.237 290.819,267.981C290.819,272.38 289.603,276.436 287.169,280.149C284.735,283.862 281.335,286.678 276.967,288.596C272.599,290.515 267.092,291.475 260.446,291.475C248.777,291.475 240.696,289.228 236.203,284.735C231.711,280.243 229.168,274.533 228.575,267.606Z" style="fill-rule:nonzero;"/><path d="M301.584,221.695L354,221.695L354,236.437L322.878,236.437L322.878,248.418L349.46,248.418L349.46,262.271L322.878,262.271L322.878,290.305L301.584,290.305L301.584,221.695Z" style="fill-rule:nonzero;"/></g></svg>