<?xml version="1.0" encoding="UTF-8" standalone="no"?><!DOCTYPE svg PUBLIC "-//W3C//DTD SVG 1.1//EN" "http://www.w3.org/Graphics/SVG/1.1/DTD/svg11.dtd"><svg width="512px" height="512px" version="1.1" xmlns="http://www.w3.org/2000/svg" xmlns:xlink="http://www.w3.org/1999/xlink" xml:space="preserve" xmlns:serif="http://www.serif.com/" style="fill-rule:evenodd;clip-rule:evenodd;stroke-linejoin:round;stroke-miterlimit:2;"><path d="M242.624,41.387L221.013,25.6L247.744,25.6L256,0L264.256,25.6L290.987,25.6L269.376,41.387L277.611,67.136L256,51.2L234.389,67.136L242.624,41.387ZM269.376,486.4L277.611,512L256,496.213L234.389,512L242.624,486.4L221.013,470.613L247.744,470.613L256,444.864L264.256,470.613L290.987,470.613L269.376,486.4ZM34.987,273.067L13.376,289.003L21.611,263.403L0,248.043L26.731,248.043L34.987,222.443L43.243,248.043L70.123,248.043L48.363,263.957L56.597,289.557L34.987,273.643L34.987,273.067ZM158.869,71.104L167.104,96.704L145.493,81.067L123.883,96.853L132.117,71.253L110.507,55.467L137.237,55.467L145.493,29.867L153.749,55.467L180.48,55.467L158.869,71.104ZM56.896,136.811L65.131,111.211L73.536,136.811L99.563,136.811L77.931,152.747L86.187,178.347L64.427,162.411L42.667,178.347L50.923,152.747L29.291,136.811L56.896,136.811ZM29.291,359.253L56.896,359.253L65.131,333.653L73.536,359.253L99.563,359.253L77.931,375.189L86.187,400.789L64.427,385.003L42.667,400.789L50.923,375.189L29.291,359.253ZM132.117,456.533L110.507,440.896L137.237,440.896L145.493,415.296L153.749,440.896L180.48,440.896L158.869,456.533L167.104,482.133L145.493,466.347L123.883,482.133L132.117,456.533ZM490.389,263.957L498.624,289.557L477.013,273.643L455.104,289.557L463.36,263.957L441.6,248.043L469.333,248.043L477.589,222.443L485.824,248.043L512,248.043L490.389,263.957ZM353.131,71.104L331.52,55.467L358.251,55.467L366.507,29.867L374.763,55.467L401.493,55.467L379.883,71.104L388.117,96.704L366.507,81.067L344.896,96.853L353.131,71.253L353.131,71.104ZM438.464,136.683L446.869,111.083L455.104,136.683L481.856,136.683L460.8,152.747L469.056,178.347L447.424,162.411L425.664,178.347L433.92,152.747L412.437,136.811L438.464,136.683ZM455.104,359.253L481.856,359.253L460.8,375.189L469.056,400.789L447.424,385.003L425.664,400.789L433.92,375.189L412.437,359.253L439.189,359.253L447.573,333.653L455.829,359.253L455.104,359.253ZM401.493,440.896L379.883,456.533L388.117,482.133L366.507,466.347L344.896,482.133L353.131,456.533L331.52,440.896L358.251,440.896L366.507,415.296L374.763,440.896L401.493,440.896Z" style="fill-rule:nonzero;"/><g id="EE"><rect x="109" y="227.079" width="22.875" height="73.865" style="fill-rule:nonzero;"/><path d="M148.351,227.079L171.176,227.079L171.176,254.992L195.109,227.079L225.441,227.079L198.535,254.942L226.65,300.944L198.535,300.944L182.966,270.561L171.176,282.906L171.176,300.944L148.351,300.944L148.351,227.079Z" style="fill-rule:nonzero;"/><path d="M282.276,227.079L305.05,227.079L305.05,271.087C305.05,275.45 304.37,279.57 303.01,283.448C301.649,287.325 299.516,290.715 296.611,293.619C293.705,296.523 290.657,298.562 287.466,299.736C283.032,301.381 277.708,302.204 271.494,302.204C267.899,302.204 263.978,301.952 259.729,301.448C255.479,300.944 251.927,299.946 249.072,298.452C246.217,296.959 243.605,294.835 241.237,292.083C238.869,289.33 237.248,286.494 236.375,283.574C234.964,278.874 234.259,274.712 234.259,271.087L234.259,227.079L257.033,227.079L257.033,272.134C257.033,276.162 258.15,279.309 260.384,281.574C262.617,283.839 265.716,284.972 269.68,284.972C273.61,284.972 276.692,283.856 278.925,281.624C281.159,279.392 282.276,276.229 282.276,272.134L282.276,227.079ZM252.347,209.796L265.447,209.796L265.447,222.393L252.347,222.393L252.347,209.796ZM273.711,209.796L286.962,209.796L286.962,222.393L273.711,222.393L273.711,209.796Z" style="fill-rule:nonzero;"/><path d="M319.914,227.079L349.944,227.079L361.533,272.023L373.071,227.079L403,227.079L403,300.944L384.357,300.944L384.357,244.613L369.897,300.944L353.017,300.944L338.607,244.613L338.607,300.944L319.914,300.944L319.914,227.079Z" style="fill-rule:nonzero;"/></g></svg>