<?xml version="1.0" encoding="UTF-8" standalone="no"?><!DOCTYPE svg PUBLIC "-//W3C//DTD SVG 1.1//EN" "http://www.w3.org/Graphics/SVG/1.1/DTD/svg11.dtd"><svg width="100%" height="100%" viewBox="0 0 512 512" version="1.1" xmlns="http://www.w3.org/2000/svg" xmlns:xlink="http://www.w3.org/1999/xlink" xml:space="preserve" xmlns:serif="http://www.serif.com/" style="fill-rule:evenodd;clip-rule:evenodd;stroke-linejoin:round;stroke-miterlimit:2;"><path d="M242.624,41.387L221.013,25.6L247.744,25.6L256,0L264.256,25.6L290.987,25.6L269.376,41.387L277.611,67.136L256,51.2L234.389,67.136L242.624,41.387ZM269.376,486.4L277.611,512L256,496.213L234.389,512L242.624,486.4L221.013,470.613L247.744,470.613L256,444.864L264.256,470.613L290.987,470.613L269.376,486.4ZM34.987,273.067L13.376,289.003L21.611,263.403L0,248.043L26.731,248.043L34.987,222.443L43.243,248.043L70.123,248.043L48.363,263.957L56.597,289.557L34.987,273.643L34.987,273.067ZM158.869,71.104L167.104,96.704L145.493,81.067L123.883,96.853L132.117,71.253L110.507,55.467L137.237,55.467L145.493,29.867L153.749,55.467L180.48,55.467L158.869,71.104ZM56.896,136.811L65.131,111.211L73.536,136.811L99.563,136.811L77.931,152.747L86.187,178.347L64.427,162.411L42.667,178.347L50.923,152.747L29.291,136.811L56.896,136.811ZM29.291,359.253L56.896,359.253L65.131,333.653L73.536,359.253L99.563,359.253L77.931,375.189L86.187,400.789L64.427,385.003L42.667,400.789L50.923,375.189L29.291,359.253ZM132.117,456.533L110.507,440.896L137.237,440.896L145.493,415.296L153.749,440.896L180.48,440.896L158.869,456.533L167.104,482.133L145.493,466.347L123.883,482.133L132.117,456.533ZM490.389,263.957L498.624,289.557L477.013,273.643L455.104,289.557L463.36,263.957L441.6,248.043L469.333,248.043L477.589,222.443L485.824,248.043L512,248.043L490.389,263.957ZM353.131,71.104L331.52,55.467L358.251,55.467L366.507,29.867L374.763,55.467L401.493,55.467L379.883,71.104L388.117,96.704L366.507,81.067L344.896,96.853L353.131,71.253L353.131,71.104ZM438.464,136.683L446.869,111.083L455.104,136.683L481.856,136.683L460.8,152.747L469.056,178.347L447.424,162.411L425.664,178.347L433.92,152.747L412.437,136.811L438.464,136.683ZM455.104,359.253L481.856,359.253L460.8,375.189L469.056,400.789L447.424,385.003L425.664,400.789L433.92,375.189L412.437,359.253L439.189,359.253L447.573,333.653L455.829,359.253L455.104,359.253ZM401.493,440.896L379.883,456.533L388.117,482.133L366.507,466.347L344.896,482.133L353.131,456.533L331.52,440.896L358.251,440.896L366.507,415.296L374.763,440.896L401.493,440.896Z" style="fill-rule:nonzero;"/><g id="IE"><path d="M109,291.328L109,220.672L145.389,220.672C152.136,220.672 157.293,221.25 160.86,222.407C164.426,223.564 167.302,225.708 169.487,228.841C171.672,231.974 172.764,235.79 172.764,240.288C172.764,244.208 171.929,247.59 170.258,250.433C168.587,253.277 166.29,255.582 163.366,257.35C161.502,258.474 158.948,259.406 155.703,260.145C158.305,261.013 160.201,261.881 161.39,262.749C162.193,263.328 163.358,264.566 164.884,266.463C166.41,268.36 167.43,269.823 167.945,270.851L178.5,291.328L153.823,291.328L142.159,269.736C140.681,266.941 139.364,265.125 138.207,264.29C136.633,263.197 134.85,262.651 132.857,262.651L130.93,262.651L130.93,291.328L109,291.328ZM130.93,249.301L140.135,249.301C141.131,249.301 143.059,248.979 145.919,248.337C147.365,248.048 148.545,247.309 149.461,246.12C150.377,244.931 150.835,243.565 150.835,242.023C150.835,239.742 150.112,237.99 148.666,236.77C147.22,235.549 144.505,234.938 140.521,234.938L130.93,234.938L130.93,249.301Z" style="fill-rule:nonzero;"/><path d="M219.226,265.736L219.226,251.036L252.964,251.036L252.964,281.159C246.505,285.561 240.794,288.557 235.83,290.147C230.865,291.738 224.977,292.533 218.166,292.533C209.779,292.533 202.943,291.103 197.658,288.244C192.372,285.384 188.276,281.127 185.368,275.471C182.46,269.816 181.006,263.326 181.006,256C181.006,248.289 182.596,241.581 185.777,235.878C188.958,230.175 193.617,225.845 199.754,222.889C204.542,220.608 210.984,219.467 219.081,219.467C226.889,219.467 232.729,220.174 236.601,221.588C240.473,223.001 243.686,225.194 246.24,228.166C248.795,231.139 250.714,234.906 252,239.469L230.938,243.228C230.07,240.561 228.6,238.521 226.528,237.107C224.455,235.693 221.812,234.986 218.599,234.986C213.812,234.986 209.996,236.649 207.153,239.975C204.309,243.3 202.887,248.562 202.887,255.759C202.887,263.406 204.325,268.869 207.201,272.146C210.077,275.423 214.085,277.062 219.226,277.062C221.668,277.062 223.997,276.709 226.214,276.002C228.431,275.295 230.97,274.09 233.83,272.387L233.83,265.736L219.226,265.736Z" style="fill-rule:nonzero;"/><path d="M312.969,262.41L332.103,268.194C330.817,273.56 328.793,278.042 326.03,281.641C323.267,285.239 319.837,287.954 315.74,289.786C311.643,291.617 306.43,292.533 300.1,292.533C292.421,292.533 286.147,291.417 281.279,289.186C276.411,286.954 272.21,283.029 268.676,277.41C265.141,271.79 263.374,264.598 263.374,255.831C263.374,244.144 266.483,235.161 272.7,228.883C278.918,222.606 287.713,219.467 299.088,219.467C307.988,219.467 314.985,221.266 320.078,224.865C325.17,228.464 328.954,233.99 331.428,241.445L312.149,245.734C311.474,243.581 310.768,242.007 310.029,241.011C308.808,239.34 307.313,238.055 305.546,237.155C303.779,236.255 301.803,235.806 299.618,235.806C294.67,235.806 290.878,237.795 288.244,241.775C286.251,244.728 285.255,249.365 285.255,255.687C285.255,263.518 286.444,268.885 288.822,271.79C291.2,274.694 294.541,276.146 298.847,276.146C303.024,276.146 306.181,274.973 308.318,272.628C310.454,270.282 312.005,266.876 312.969,262.41Z" style="fill-rule:nonzero;"/><path d="M338.898,267.953L359.671,266.651C360.121,270.025 361.037,272.596 362.418,274.363C364.668,277.223 367.881,278.652 372.058,278.652C375.174,278.652 377.576,277.921 379.263,276.46C380.95,274.998 381.793,273.303 381.793,271.375C381.793,269.543 380.99,267.905 379.384,266.459C377.777,265.013 374.05,263.647 368.202,262.362C358.627,260.209 351.799,257.35 347.718,253.783C343.606,250.216 341.549,245.67 341.549,240.143C341.549,236.512 342.601,233.082 344.706,229.853C346.811,226.624 349.976,224.086 354.201,222.238C358.426,220.391 364.218,219.467 371.576,219.467C380.605,219.467 387.489,221.146 392.228,224.503C396.967,227.861 399.787,233.203 400.687,240.529L380.107,241.734C379.56,238.553 378.412,236.239 376.66,234.793C374.909,233.348 372.491,232.625 369.407,232.625C366.869,232.625 364.957,233.163 363.671,234.239C362.386,235.316 361.744,236.625 361.744,238.167C361.744,239.292 362.274,240.304 363.334,241.204C364.362,242.135 366.804,243.003 370.66,243.806C380.203,245.863 387.039,247.943 391.168,250.048C395.297,252.152 398.301,254.763 400.18,257.88C402.06,260.996 403,264.483 403,268.338C403,272.869 401.747,277.046 399.241,280.87C396.734,284.693 393.232,287.593 388.734,289.569C384.235,291.545 378.564,292.533 371.72,292.533C359.703,292.533 351.381,290.22 346.754,285.593C342.128,280.966 339.509,275.086 338.898,267.953Z" style="fill-rule:nonzero;"/></g></svg>