<?xml version="1.0" encoding="UTF-8" standalone="no"?><!DOCTYPE svg PUBLIC "-//W3C//DTD SVG 1.1//EN" "http://www.w3.org/Graphics/SVG/1.1/DTD/svg11.dtd"><svg width="100%" height="100%" viewBox="0 0 512 512" version="1.1" xmlns="http://www.w3.org/2000/svg" xmlns:xlink="http://www.w3.org/1999/xlink" xml:space="preserve" xmlns:serif="http://www.serif.com/" style="fill-rule:evenodd;clip-rule:evenodd;stroke-linejoin:round;stroke-miterlimit:2;"><path d="M242.624,41.387L221.013,25.6L247.744,25.6L256,0L264.256,25.6L290.987,25.6L269.376,41.387L277.611,67.136L256,51.2L234.389,67.136L242.624,41.387ZM269.376,486.4L277.611,512L256,496.213L234.389,512L242.624,486.4L221.013,470.613L247.744,470.613L256,444.864L264.256,470.613L290.987,470.613L269.376,486.4ZM34.987,273.067L13.376,289.003L21.611,263.403L0,248.043L26.731,248.043L34.987,222.443L43.243,248.043L70.123,248.043L48.363,263.957L56.597,289.557L34.987,273.643L34.987,273.067ZM158.869,71.104L167.104,96.704L145.493,81.067L123.883,96.853L132.117,71.253L110.507,55.467L137.237,55.467L145.493,29.867L153.749,55.467L180.48,55.467L158.869,71.104ZM56.896,136.811L65.131,111.211L73.536,136.811L99.563,136.811L77.931,152.747L86.187,178.347L64.427,162.411L42.667,178.347L50.923,152.747L29.291,136.811L56.896,136.811ZM29.291,359.253L56.896,359.253L65.131,333.653L73.536,359.253L99.563,359.253L77.931,375.189L86.187,400.789L64.427,385.003L42.667,400.789L50.923,375.189L29.291,359.253ZM132.117,456.533L110.507,440.896L137.237,440.896L145.493,415.296L153.749,440.896L180.48,440.896L158.869,456.533L167.104,482.133L145.493,466.347L123.883,482.133L132.117,456.533ZM490.389,263.957L498.624,289.557L477.013,273.643L455.104,289.557L463.36,263.957L441.6,248.043L469.333,248.043L477.589,222.443L485.824,248.043L512,248.043L490.389,263.957ZM353.131,71.104L331.52,55.467L358.251,55.467L366.507,29.867L374.763,55.467L401.493,55.467L379.883,71.104L388.117,96.704L366.507,81.067L344.896,96.853L353.131,71.253L353.131,71.104ZM438.464,136.683L446.869,111.083L455.104,136.683L481.856,136.683L460.8,152.747L469.056,178.347L447.424,162.411L425.664,178.347L433.92,152.747L412.437,136.811L438.464,136.683ZM455.104,359.253L481.856,359.253L460.8,375.189L469.056,400.789L447.424,385.003L425.664,400.789L433.92,375.189L412.437,359.253L439.189,359.253L447.573,333.653L455.829,359.253L455.104,359.253ZM401.493,440.896L379.883,456.533L388.117,482.133L366.507,466.347L344.896,482.133L353.131,456.533L331.52,440.896L358.251,440.896L366.507,415.296L374.763,440.896L401.493,440.896Z" style="fill-rule:nonzero;"/><g id="MT"><path d="M109,300.218L109,229.873L145.228,229.873C151.946,229.873 157.08,230.448 160.631,231.6C164.182,232.752 167.045,234.887 169.22,238.006C171.396,241.125 172.483,244.924 172.483,249.402C172.483,253.305 171.652,256.672 169.988,259.503C168.325,262.334 166.037,264.629 163.126,266.389C161.271,267.508 158.728,268.436 155.497,269.172C158.088,270.036 159.975,270.9 161.159,271.764C161.959,272.341 163.118,273.573 164.638,275.462C166.157,277.351 167.173,278.807 167.685,279.831L178.193,300.218L153.625,300.218L142.013,278.721C140.542,275.937 139.23,274.13 138.079,273.298C136.511,272.211 134.736,271.667 132.752,271.667L130.833,271.667L130.833,300.218L109,300.218ZM130.833,258.375L139.998,258.375C140.99,258.375 142.909,258.055 145.756,257.416C147.196,257.128 148.371,256.392 149.283,255.208C150.195,254.025 150.65,252.665 150.65,251.13C150.65,248.858 149.931,247.115 148.491,245.899C147.052,244.684 144.348,244.076 140.382,244.076L130.833,244.076L130.833,258.375Z" style="fill-rule:nonzero;"/><path d="M220.516,274.738L220.516,260.103L254.105,260.103L254.105,290.093C247.675,294.475 241.989,297.458 237.046,299.042C232.104,300.625 226.242,301.417 219.46,301.417C211.111,301.417 204.305,299.994 199.043,297.147C193.78,294.299 189.702,290.061 186.807,284.431C183.912,278.801 182.464,272.339 182.464,265.045C182.464,257.368 184.047,250.69 187.214,245.012C190.381,239.333 195.02,235.023 201.13,232.08C205.896,229.809 212.31,228.673 220.372,228.673C228.145,228.673 233.959,229.377 237.814,230.784C241.669,232.192 244.868,234.375 247.411,237.334C249.954,240.293 251.865,244.044 253.145,248.586L232.176,252.329C231.312,249.674 229.849,247.643 227.785,246.235C225.722,244.828 223.091,244.124 219.892,244.124C215.125,244.124 211.327,245.779 208.496,249.09C205.664,252.401 204.249,257.639 204.249,264.805C204.249,272.419 205.68,277.857 208.543,281.12C211.407,284.383 215.397,286.014 220.516,286.014C222.947,286.014 225.266,285.662 227.473,284.959C229.681,284.255 232.208,283.055 235.055,281.36L235.055,274.738L220.516,274.738ZM212.502,210.583L227.569,210.583L227.569,224.978L212.502,224.978L212.502,210.583Z" style="fill-rule:nonzero;"/><path d="M266.916,229.873L303.049,229.873C310.918,229.873 316.812,231.744 320.731,235.487C324.65,239.229 326.609,244.556 326.609,251.465C326.609,258.567 324.474,264.117 320.203,268.116C315.932,272.115 309.415,274.114 300.649,274.114L288.749,274.114L288.749,300.218L266.916,300.218L266.916,229.873ZM288.749,259.863L294.076,259.863C298.266,259.863 301.209,259.135 302.905,257.679C304.6,256.224 305.448,254.361 305.448,252.089C305.448,249.882 304.712,248.011 303.241,246.475C301.769,244.94 299.002,244.172 294.939,244.172L288.749,244.172L288.749,259.863Z" style="fill-rule:nonzero;"/><path d="M338.269,229.873L370.563,229.873C376.929,229.873 382.071,230.736 385.99,232.464C389.908,234.191 393.147,236.67 395.706,239.901C398.266,243.132 400.121,246.891 401.273,251.178C402.424,255.464 403,260.007 403,264.805C403,272.323 402.144,278.153 400.433,282.295C398.721,286.438 396.346,289.909 393.307,292.708C390.268,295.507 387.005,297.37 383.518,298.298C378.752,299.578 374.433,300.218 370.563,300.218L338.269,300.218L338.269,229.873ZM360.006,245.803L360.006,284.239L365.332,284.239C369.875,284.239 373.106,283.735 375.025,282.727C376.945,281.72 378.448,279.96 379.536,277.449C380.623,274.938 381.167,270.867 381.167,265.237C381.167,257.783 379.952,252.681 377.52,249.93C375.089,247.179 371.058,245.803 365.428,245.803L360.006,245.803Z" style="fill-rule:nonzero;"/></g></svg>