<?xml version="1.0" encoding="UTF-8" standalone="no"?><!DOCTYPE svg PUBLIC "-//W3C//DTD SVG 1.1//EN" "http://www.w3.org/Graphics/SVG/1.1/DTD/svg11.dtd"><svg width="100%" height="100%" viewBox="0 0 512 512" version="1.1" xmlns="http://www.w3.org/2000/svg" xmlns:xlink="http://www.w3.org/1999/xlink" xml:space="preserve" xmlns:serif="http://www.serif.com/" style="fill-rule:evenodd;clip-rule:evenodd;stroke-linejoin:round;stroke-miterlimit:2;"><path d="M256,512C115.563,512 0,396.437 0,256C-0,115.563 115.563,0 256,0C396.437,0 512,115.563 512,256C512,396.437 396.437,512 256,512ZM87.979,108.513C53.199,148.034 32,199.736 32,256C32,378.883 133.117,480 256,480C312.264,480 363.966,458.801 403.487,424.021L87.979,108.513ZM424.655,402.763C459.059,363.335 480,311.921 480,256C480,133.117 378.883,32 256,32C200.079,32 148.665,52.941 109.237,87.345L424.655,402.763Z"/><g><path d="M214.312,245.58C214.312,262.729 200.2,276.841 183.051,276.841C165.902,276.841 151.79,262.729 151.79,245.58C151.79,228.43 165.902,214.318 183.051,214.318C200.2,214.318 214.312,228.43 214.312,245.58M308.096,256C325.245,256 339.357,241.888 339.357,224.739C339.357,207.589 325.245,193.478 308.096,193.478C290.947,193.478 276.835,207.589 276.835,224.739C276.835,241.888 290.947,256 308.096,256M297.676,328.943C297.676,346.092 283.564,360.204 266.414,360.204C249.265,360.204 235.153,346.092 235.153,328.943C235.153,311.794 249.265,297.682 266.414,297.682C283.564,297.682 297.676,311.794 297.676,328.943" style="fill-rule:nonzero;"/><path d="M255.994,89.273C226.113,89.222 196.766,97.245 171.068,112.49C167.664,113.907 164.628,115.852 161.96,118.326C116.519,149.365 89.273,200.97 89.273,256C89.273,347.464 164.536,422.727 256,422.727C347.464,422.727 422.727,347.464 422.727,256C422.727,164.537 347.464,89.273 256,89.273C255.998,89.273 255.996,89.273 255.994,89.273M323.727,385.234C318.973,382.488 313.578,381.041 308.088,381.041C295.59,381.041 284.242,388.536 279.336,400.031C271.617,401.274 263.812,401.894 255.994,401.886C227.514,401.926 199.642,393.59 175.861,377.919C186.602,372.694 193.449,361.752 193.449,349.807C193.449,332.657 179.337,318.546 162.187,318.546C150.242,318.546 139.3,325.392 134.075,336.133C118.404,312.352 110.068,284.48 110.108,256C110.108,215.298 126.781,178.493 153.665,152.025C158.141,164.361 169.929,172.623 183.052,172.623C200.201,172.623 214.313,158.512 214.313,141.362C214.313,133.057 211.004,125.085 205.121,119.222C221.402,113.183 238.63,110.098 255.994,110.114C285.588,110.114 313.14,118.93 336.127,134.081C325.385,139.306 318.539,150.249 318.539,162.193C318.539,179.343 332.651,193.455 349.801,193.455C361.745,193.455 372.688,186.609 377.913,175.867C393.584,199.648 401.92,227.52 401.88,256C401.88,268.421 400.338,280.467 397.42,291.992C391.774,282.6 381.586,276.837 370.627,276.837C353.478,276.837 339.366,290.949 339.366,308.098C339.366,325.248 353.478,339.36 370.627,339.36C372.448,339.36 374.265,339.2 376.058,338.884C362.635,358.343 344.681,374.251 323.748,385.234L323.727,385.234Z" style="fill-rule:nonzero;"/></g></svg>