<?xml version="1.0" encoding="UTF-8" standalone="no"?><!DOCTYPE svg PUBLIC "-//W3C//DTD SVG 1.1//EN" "http://www.w3.org/Graphics/SVG/1.1/DTD/svg11.dtd"><svg width="512px" height="512px" version="1.1" xmlns="http://www.w3.org/2000/svg" xmlns:xlink="http://www.w3.org/1999/xlink" xml:space="preserve" xmlns:serif="http://www.serif.com/" style="fill-rule:evenodd;clip-rule:evenodd;stroke-linejoin:round;stroke-miterlimit:2;"><path d="M242.624,41.387L221.013,25.6L247.744,25.6L256,0L264.256,25.6L290.987,25.6L269.376,41.387L277.611,67.136L256,51.2L234.389,67.136L242.624,41.387ZM269.376,486.4L277.611,512L256,496.213L234.389,512L242.624,486.4L221.013,470.613L247.744,470.613L256,444.864L264.256,470.613L290.987,470.613L269.376,486.4ZM34.987,273.067L13.376,289.003L21.611,263.403L0,248.043L26.731,248.043L34.987,222.443L43.243,248.043L70.123,248.043L48.363,263.957L56.597,289.557L34.987,273.643L34.987,273.067ZM158.869,71.104L167.104,96.704L145.493,81.067L123.883,96.853L132.117,71.253L110.507,55.467L137.237,55.467L145.493,29.867L153.749,55.467L180.48,55.467L158.869,71.104ZM56.896,136.811L65.131,111.211L73.536,136.811L99.563,136.811L77.931,152.747L86.187,178.347L64.427,162.411L42.667,178.347L50.923,152.747L29.291,136.811L56.896,136.811ZM29.291,359.253L56.896,359.253L65.131,333.653L73.536,359.253L99.563,359.253L77.931,375.189L86.187,400.789L64.427,385.003L42.667,400.789L50.923,375.189L29.291,359.253ZM132.117,456.533L110.507,440.896L137.237,440.896L145.493,415.296L153.749,440.896L180.48,440.896L158.869,456.533L167.104,482.133L145.493,466.347L123.883,482.133L132.117,456.533ZM490.389,263.957L498.624,289.557L477.013,273.643L455.104,289.557L463.36,263.957L441.6,248.043L469.333,248.043L477.589,222.443L485.824,248.043L512,248.043L490.389,263.957ZM353.131,71.104L331.52,55.467L358.251,55.467L366.507,29.867L374.763,55.467L401.493,55.467L379.883,71.104L388.117,96.704L366.507,81.067L344.896,96.853L353.131,71.253L353.131,71.104ZM438.464,136.683L446.869,111.083L455.104,136.683L481.856,136.683L460.8,152.747L469.056,178.347L447.424,162.411L425.664,178.347L433.92,152.747L412.437,136.811L438.464,136.683ZM455.104,359.253L481.856,359.253L460.8,375.189L469.056,400.789L447.424,385.003L425.664,400.789L433.92,375.189L412.437,359.253L439.189,359.253L447.573,333.653L455.829,359.253L455.104,359.253ZM401.493,440.896L379.883,456.533L388.117,482.133L366.507,466.347L344.896,482.133L353.131,456.533L331.52,440.896L358.251,440.896L366.507,415.296L374.763,440.896L401.493,440.896Z" style="fill-rule:nonzero;"/><g id="EN"><path d="M146.113,265.454L146.113,251.18L178.873,251.18L178.873,280.43C172.602,284.704 167.056,287.614 162.235,289.158C157.415,290.702 151.698,291.475 145.083,291.475C136.94,291.475 130.302,290.086 125.17,287.309C120.037,284.533 116.059,280.399 113.235,274.907C110.412,269.416 109,263.114 109,256C109,248.512 110.544,241.999 113.633,236.461C116.722,230.923 121.246,226.719 127.205,223.848C131.854,221.633 138.11,220.525 145.972,220.525C153.554,220.525 159.225,221.212 162.984,222.585C166.744,223.957 169.864,226.087 172.344,228.973C174.825,231.859 176.689,235.517 177.937,239.947L157.485,243.598C156.643,241.008 155.215,239.027 153.203,237.654C151.191,236.281 148.624,235.595 145.504,235.595C140.855,235.595 137.15,237.21 134.389,240.439C131.628,243.668 130.247,248.777 130.247,255.766C130.247,263.192 131.644,268.496 134.436,271.678C137.228,274.861 141.121,276.452 146.113,276.452C148.484,276.452 150.746,276.109 152.899,275.422C155.052,274.736 157.516,273.566 160.293,271.912L160.293,265.454L146.113,265.454Z" style="fill-rule:nonzero;"/><path d="M191.743,221.695L223.24,221.695C229.449,221.695 234.464,222.538 238.286,224.223C242.108,225.907 245.267,228.325 247.763,231.477C250.259,234.628 252.069,238.294 253.192,242.475C254.315,246.656 254.877,251.086 254.877,255.766C254.877,263.098 254.042,268.784 252.373,272.825C250.704,276.865 248.387,280.25 245.423,282.98C242.459,285.71 239.277,287.528 235.876,288.433C231.227,289.681 227.015,290.305 223.24,290.305L191.743,290.305L191.743,221.695ZM212.944,237.233L212.944,274.72L218.138,274.72C222.569,274.72 225.72,274.229 227.592,273.246C229.464,272.263 230.931,270.547 231.991,268.098C233.052,265.649 233.583,261.678 233.583,256.187C233.583,248.918 232.397,243.941 230.026,241.258C227.655,238.575 223.723,237.233 218.232,237.233L212.944,237.233Z" style="fill-rule:nonzero;"/><path d="M265.922,221.695L301.162,221.695C308.838,221.695 314.586,223.521 318.408,227.171C322.23,230.821 324.141,236.016 324.141,242.755C324.141,249.682 322.059,255.095 317.894,258.995C313.728,262.895 307.371,264.845 298.822,264.845L287.216,264.845L287.216,290.305L265.922,290.305L265.922,221.695ZM287.216,250.946L292.411,250.946C296.498,250.946 299.368,250.236 301.022,248.816C302.676,247.397 303.502,245.579 303.502,243.364C303.502,241.211 302.785,239.386 301.35,237.888C299.914,236.391 297.216,235.642 293.253,235.642L287.216,235.642L287.216,250.946Z" style="fill-rule:nonzero;"/><path d="M335.514,290.305L335.514,221.695L370.848,221.695C377.4,221.695 382.408,222.257 385.871,223.38C389.334,224.503 392.127,226.586 394.248,229.628C396.37,232.67 397.431,236.375 397.431,240.743C397.431,244.55 396.62,247.833 394.997,250.595C393.375,253.356 391.144,255.594 388.305,257.31C386.495,258.402 384.015,259.307 380.863,260.025C383.391,260.868 385.231,261.711 386.386,262.554C387.166,263.116 388.297,264.318 389.779,266.16C391.261,268.002 392.252,269.422 392.751,270.421L403,290.305L379.038,290.305L367.713,269.338C366.277,266.624 364.998,264.861 363.875,264.05C362.346,262.989 360.614,262.458 358.68,262.458L356.808,262.458L356.808,290.305L335.514,290.305ZM356.808,249.495L365.747,249.495C366.714,249.495 368.586,249.183 371.363,248.559C372.767,248.278 373.914,247.56 374.803,246.406C375.692,245.252 376.137,243.926 376.137,242.428C376.137,240.213 375.435,238.512 374.031,237.327C372.627,236.141 369.99,235.548 366.121,235.548L356.808,235.548L356.808,249.495Z" style="fill-rule:nonzero;"/></g></svg>