<?xml version="1.0" encoding="UTF-8" standalone="no"?><!DOCTYPE svg PUBLIC "-//W3C//DTD SVG 1.1//EN" "http://www.w3.org/Graphics/SVG/1.1/DTD/svg11.dtd"><svg width="100%" height="100%" viewBox="0 0 24 24" version="1.1" xmlns="http://www.w3.org/2000/svg" xmlns:xlink="http://www.w3.org/1999/xlink" xml:space="preserve" xmlns:serif="http://www.serif.com/" style="fill-rule:evenodd;clip-rule:evenodd;stroke-linejoin:round;stroke-miterlimit:2;"><path d="M13.95,16.602c-0,-0 6.641,-0.016 6.881,-0.032c0.745,1.136 1.061,2.551 -0.292,3.907c-1.809,1.809 -3.747,0.637 -4.959,-0.575l-2.468,-2.464l0.838,-0.836Zm-3.84,-9.268l-6.889,0.04c-0.742,-1.108 -1.053,-2.471 0.347,-3.866c1.905,-1.906 3.744,-0.638 4.956,0.57l2.424,2.419l-0.838,0.837Zm11.402,1.659c1.308,0.254 2.488,1.001 2.488,2.977c0,2.695 -2.197,3.097 -3.911,3.097l-4.601,0c0,0 5.877,-5.903 6.024,-6.074Zm-12.932,-0.124c-0,0 -5.866,5.887 -6.024,6.071c-1.332,-0.275 -2.556,-1.061 -2.556,-2.97c0,-2.563 2.197,-3.101 3.911,-3.101l4.669,0Zm5.916,12.118c0.167,0.167 0.335,0.311 0.506,0.458c-0.276,1.331 -1.06,2.555 -2.97,2.555c-1.91,0 -2.691,-1.219 -2.971,-2.548c0.189,-0.163 0.371,-0.333 0.547,-0.51l2.424,-2.419l2.464,2.464Zm-4.888,-17.989l0.004,-0c-0.192,-0.188 -0.374,-0.347 -0.558,-0.507c0.254,-1.307 0.996,-2.491 2.974,-2.491c1.977,0 2.719,1.18 2.978,2.483c-0.176,0.151 -0.347,0.307 -0.51,0.47l-2.464,2.464l-2.424,-2.419Zm10.931,0.466c1.811,1.81 0.639,3.747 -0.573,4.959l-11.442,11.439c-1.209,1.209 -3.051,2.476 -4.956,0.57c-1.906,-1.905 -0.638,-3.746 0.571,-4.954l11.441,-11.44c1.212,-1.212 3.146,-2.383 4.959,-0.574Z"/></svg>
