<?xml version="1.0" encoding="UTF-8" standalone="no"?><!DOCTYPE svg PUBLIC "-//W3C//DTD SVG 1.1//EN" "http://www.w3.org/Graphics/SVG/1.1/DTD/svg11.dtd"><svg width="100%" height="100%" viewBox="0 0 512 512" version="1.1" xmlns="http://www.w3.org/2000/svg" xmlns:xlink="http://www.w3.org/1999/xlink" xml:space="preserve" xmlns:serif="http://www.serif.com/" style="fill-rule:evenodd;clip-rule:evenodd;stroke-linejoin:round;stroke-miterlimit:2;"><path d="M171.119,384.656C126.572,375.989 91.676,344.16 83.149,286.441C75.26,233.047 112.368,181.59 170.296,155.292C170.57,155.168 170.844,155.044 171.119,154.921L171.119,67.565C171.119,56.884 179.791,48.212 190.472,48.212L229.178,48.212C239.859,48.212 248.531,56.884 248.531,67.565L248.531,137.311C276.29,136.597 304.324,141.793 329.685,154.209C333.387,122.047 331.626,85.442 322.414,44.722C317.97,25.073 330.313,5.513 349.962,1.068C369.61,-3.377 389.171,8.967 393.615,28.615C409.718,99.802 407.008,160.934 392.872,211.435C426.017,264.112 440.331,350.616 405.49,483.885C400.394,503.375 380.434,515.061 360.945,509.966C341.455,504.87 329.768,484.91 334.864,465.42C353.503,394.123 357.344,339.99 350.144,300.022C334.188,321.652 315.876,339.253 296.828,352.704C281.125,363.793 264.784,372.152 248.531,377.851L248.531,430.175C248.531,440.856 239.859,449.528 229.178,449.528L190.472,449.528C179.791,449.528 171.119,440.856 171.119,430.175L171.119,384.656ZM248.531,372.547C263.821,367.012 279.17,359.053 293.944,348.62C313.922,334.512 333.067,315.734 349.44,292.444C350.012,291.631 351.011,291.234 351.985,291.433C352.959,291.631 353.723,292.388 353.93,293.36C362.682,334.369 359.491,390.987 339.701,466.685C335.304,483.505 345.389,500.731 362.209,505.128C379.029,509.526 396.255,499.44 400.652,482.62C435.194,350.497 421.14,264.997 388.056,213.176C387.672,212.574 387.563,211.835 387.759,211.148C401.965,161.12 404.739,100.45 388.739,29.718C384.903,12.762 368.022,2.109 351.065,5.945C334.108,9.78 323.455,26.662 327.291,43.618C336.987,86.479 338.53,124.851 334.216,158.361C334.111,159.17 333.619,159.878 332.896,160.257C332.172,160.635 331.31,160.637 330.585,160.261C281.07,134.589 220.39,138.042 172.363,159.845C116.639,185.142 80.506,234.349 88.095,285.71C96.185,340.469 129.028,370.929 171.119,379.541L171.119,312.745C169.739,311.903 168.407,310.974 167.126,309.954C158.217,302.857 152.635,291.504 150.418,276.502C148.469,263.311 153.571,251.499 162.829,241.392C171.761,231.641 184.597,223.479 198.405,217.211C233.902,201.096 280.56,198.284 314.065,224.072C314.993,224.785 315.301,226.046 314.808,227.107C298.445,262.298 274.449,287.964 248.531,303.229L248.531,372.547ZM248.531,297.395C272.247,282.711 294.097,258.916 309.411,226.829C291.527,213.743 269.932,208.978 248.531,209.988L248.531,297.395ZM171.119,240.211C169.488,241.685 167.949,243.205 166.516,244.769C158.325,253.711 153.64,264.101 155.365,275.771C157.364,289.304 162.205,299.641 170.242,306.043C170.531,306.274 170.824,306.499 171.119,306.72L171.119,240.211Z"/></svg>