<svg xmlns="http://www.w3.org/2000/svg" xml:space="preserve" style="fill-rule:evenodd;clip-rule:evenodd;stroke-linejoin:round;stroke-miterlimit:2" viewBox="0 0 24 24"><path d="m13.625 15.835-.698.697 2.056 2.053c1.01 1.01 2.625 1.987 4.133.479 1.127-1.13.864-2.309.243-3.256-.2.014-5.734.027-5.734.027m-3.2-7.723.698-.698-2.02-2.016c-1.01-1.006-2.542-2.063-4.13-.475-1.166 1.163-.907 2.299-.289 3.222zm9.502 1.382c-.123.143-5.02 5.062-5.02 5.062h3.834c1.428 0 3.259-.335 3.259-2.581 0-1.647-.983-2.269-2.073-2.481M9.15 9.391H5.259C3.831 9.391 2 9.839 2 11.975c0 1.591 1.02 2.246 2.13 2.475.132-.153 5.02-5.059 5.02-5.059m4.93 10.098-2.053-2.053-2.02 2.016a9 9 0 0 1-.456.425c.233 1.107.884 2.123 2.476 2.123 1.591 0 2.245-1.02 2.475-2.129-.143-.123-.283-.243-.422-.382M10.007 4.498l2.02 2.016 2.053-2.053q.204-.203.425-.392C14.289 2.983 13.671 2 12.023 2s-2.266.987-2.478 2.076c.153.133.305.266.465.422zm9.109.389c-1.511-1.508-3.123-.532-4.133.478l-9.534 9.533c-1.007 1.007-2.064 2.541-.476 4.129s3.123.532 4.13-.475l9.535-9.533c1.01-1.01 1.987-2.624.478-4.132" style="fill-rule:nonzero"/></svg>