<?xml version="1.0" encoding="UTF-8" standalone="no"?><!DOCTYPE svg PUBLIC "-//W3C//DTD SVG 1.1//EN" "http://www.w3.org/Graphics/SVG/1.1/DTD/svg11.dtd"><svg width="512px" height="512px" version="1.1" xmlns="http://www.w3.org/2000/svg" xmlns:xlink="http://www.w3.org/1999/xlink" xml:space="preserve" xmlns:serif="http://www.serif.com/" style="fill-rule:evenodd;clip-rule:evenodd;stroke-linejoin:round;stroke-miterlimit:2;"><path d="M170.064,389.241C119.602,379.304 80.919,340.316 82.911,269.741C84.253,222.235 119.283,180.232 170.064,158.321L170.064,67.672C170.064,56.638 179.022,47.68 190.056,47.68L230.042,47.68C241.076,47.68 250.034,56.638 250.034,67.672L250.034,142.157C275.199,142.219 300.622,146.981 324.126,157.221C329.052,124.246 329.319,86.2 323.186,43.137C320.244,22.481 334.626,3.324 355.281,0.382C375.936,-2.56 395.094,11.821 398.036,32.476C407.931,101.951 403.486,160.861 390.074,209.573C428.342,261.267 446.688,348.591 406.761,484.822C400.893,504.844 379.874,516.335 359.852,510.467C339.83,504.599 328.339,483.58 334.207,463.558C355.273,391.683 358.748,337.761 349.425,298.693C328.947,328.574 304.585,350.91 279.894,365.946C270.02,371.959 260.013,376.867 250.034,380.719L250.034,431.49C250.034,442.524 241.076,451.482 230.042,451.482L190.056,451.482C179.022,451.482 170.064,442.524 170.064,431.49L170.064,389.241ZM170.064,246.49C163.133,253.628 158.763,262.067 158.486,271.875C158.023,288.285 161.522,300.876 170.064,308.275L170.064,246.49ZM250.034,295.702C270.037,281.387 288.481,259.659 302.383,230.608C286.39,221.423 268.142,217.48 250.034,217.521L250.034,295.702Z"/></svg>
