<?xml version="1.0" encoding="UTF-8" standalone="no"?><!DOCTYPE svg PUBLIC "-//W3C//DTD SVG 1.1//EN" "http://www.w3.org/Graphics/SVG/1.1/DTD/svg11.dtd"><svg width="100%" height="100%" viewBox="0 0 24 24" version="1.1" xmlns="http://www.w3.org/2000/svg" xmlns:xlink="http://www.w3.org/1999/xlink" xml:space="preserve" xmlns:serif="http://www.serif.com/" style="fill-rule:evenodd;clip-rule:evenodd;stroke-linejoin:round;stroke-miterlimit:2;"><path d="M13.625,15.835l-0.698,0.697l2.056,2.053c1.01,1.01 2.625,1.987 4.133,0.479c1.127,-1.13 0.864,-2.309 0.243,-3.256c-0.2,0.014 -5.734,0.027 -5.734,0.027Zm-3.2,-7.723l0.698,-0.698l-2.02,-2.016c-1.01,-1.006 -2.542,-2.063 -4.13,-0.475c-1.166,1.163 -0.907,2.299 -0.289,3.222l5.741,-0.033Zm9.502,1.382c-0.123,0.143 -5.02,5.062 -5.02,5.062l3.834,0c1.428,0 3.259,-0.335 3.259,-2.581c0,-1.647 -0.983,-2.269 -2.073,-2.481Zm-10.777,-0.103l-3.891,-0c-1.428,-0 -3.259,0.448 -3.259,2.584c0,1.591 1.02,2.246 2.13,2.475c0.132,-0.153 5.02,-5.059 5.02,-5.059Zm4.93,10.098l-2.053,-2.053l-2.02,2.016c-0.147,0.147 -0.299,0.289 -0.456,0.425c0.233,1.107 0.884,2.123 2.476,2.123c1.591,0 2.245,-1.02 2.475,-2.129c-0.143,-0.123 -0.283,-0.243 -0.422,-0.382Zm-4.073,-14.991l2.02,2.016l2.053,-2.053c0.136,-0.136 0.278,-0.266 0.425,-0.392c-0.216,-1.086 -0.834,-2.069 -2.482,-2.069c-1.648,0 -2.266,0.987 -2.478,2.076c0.153,0.133 0.305,0.266 0.465,0.422l-0.003,-0Zm9.109,0.389c-1.511,-1.508 -3.123,-0.532 -4.133,0.478l-9.534,9.533c-1.007,1.007 -2.064,2.541 -0.476,4.129c1.588,1.588 3.123,0.532 4.13,-0.475l9.535,-9.533c1.01,-1.01 1.987,-2.624 0.478,-4.132Z" style="fill-rule:nonzero;"/></svg>