<svg width="512px" height="512px" version="1.1" xmlns="http://www.w3.org/2000/svg" xmlns:xlink="http://www.w3.org/1999/xlink" xml:space="preserve" style="fill-rule:evenodd;clip-rule:evenodd;stroke-linejoin:round;stroke-miterlimit:2;"><path d="M172.078,386.118C122.798,376.414 85.022,338.339 86.968,269.419C88.278,223.026 122.488,182.008 172.078,160.611L172.078,72.086C172.078,61.31 180.826,52.562 191.602,52.562L230.65,52.562C241.426,52.562 250.174,61.31 250.174,72.086L250.174,144.825C274.749,144.885 299.577,149.536 322.529,159.537C327.34,127.334 327.601,90.18 321.612,48.126C318.739,27.954 332.783,9.246 352.954,6.373C373.125,3.5 391.834,17.544 394.707,37.715C404.37,105.562 400.029,163.091 386.932,210.661C424.303,261.143 442.219,346.421 403.227,479.459C397.497,499.011 376.97,510.233 357.418,504.503C337.866,498.772 326.644,478.246 332.375,458.693C352.946,388.503 356.34,335.845 347.235,297.693C327.238,326.873 303.446,348.686 279.334,363.369C269.691,369.241 259.919,374.034 250.174,377.796L250.174,427.377C250.174,438.152 241.426,446.901 230.65,446.901L191.602,446.901C180.826,446.901 172.078,438.152 172.078,427.377L172.078,386.118ZM172.078,246.713C165.31,253.684 161.042,261.924 160.772,271.503C160.319,287.528 163.736,299.824 172.078,307.05L172.078,246.713ZM250.174,294.771C269.708,280.792 287.72,259.573 301.296,231.203C285.678,222.233 267.857,218.383 250.174,218.423L250.174,294.771Z"/></svg>
