<svg xmlns="http://www.w3.org/2000/svg" xml:space="preserve" width="512" height="512" style="fill-rule:evenodd;clip-rule:evenodd;stroke-linejoin:round;stroke-miterlimit:2"><path d="M172.078 386.118c-49.28-9.704-87.056-47.779-85.11-116.699 1.31-46.393 35.52-87.411 85.11-108.808V72.086c0-10.776 8.748-19.524 19.524-19.524h39.048c10.776 0 19.524 8.748 19.524 19.524v72.739c24.575.06 49.403 4.711 72.355 14.712 4.811-32.203 5.072-69.357-.917-111.411-2.873-20.172 11.171-38.88 31.342-41.753s38.88 11.171 41.753 31.342c9.663 67.847 5.322 125.376-7.775 172.946 37.371 50.482 55.287 135.76 16.295 268.798-5.73 19.552-26.257 30.774-45.809 25.044s-30.774-26.257-25.043-45.81c20.571-70.19 23.965-122.848 14.86-161-19.997 29.18-43.789 50.993-67.901 65.676-9.643 5.872-19.415 10.665-29.16 14.427v49.581c0 10.775-8.748 19.524-19.524 19.524h-39.048c-10.776 0-19.524-8.749-19.524-19.524zm0-139.405c-6.768 6.971-11.036 15.211-11.306 24.79-.453 16.025 2.964 28.321 11.306 35.547zm78.096 48.058c19.534-13.979 37.546-35.198 51.122-63.568-15.618-8.97-33.439-12.82-51.122-12.78z"/></svg>