<?xml version="1.0" encoding="UTF-8" standalone="no"?><!DOCTYPE svg PUBLIC "-//W3C//DTD SVG 1.1//EN" "http://www.w3.org/Graphics/SVG/1.1/DTD/svg11.dtd"><svg width="100%" height="100%" viewBox="0 0 24 24" version="1.1" xmlns="http://www.w3.org/2000/svg" xmlns:xlink="http://www.w3.org/1999/xlink" xml:space="preserve" xmlns:serif="http://www.serif.com/" style="fill-rule:evenodd;clip-rule:evenodd;stroke-linejoin:round;stroke-miterlimit:2;"><path d="M6.501,10.727c0.593,0 1.029,0.196 1.307,0.587c0.279,0.393 0.418,0.857 0.418,1.391l0,0.312l-2.552,0c0.038,0.234 0.16,0.446 0.343,0.596c0.182,0.148 0.422,0.223 0.718,0.223c0.172,0 0.327,-0.023 0.464,-0.066c0.163,-0.055 0.324,-0.119 0.48,-0.192l0.297,0.733c-0.192,0.142 -0.411,0.243 -0.644,0.296c-0.252,0.063 -0.46,0.093 -0.62,0.093c-0.656,0 -1.172,-0.18 -1.55,-0.537c-0.377,-0.36 -0.565,-0.84 -0.565,-1.441c0,-0.603 0.17,-1.086 0.51,-1.45c0.342,-0.364 0.806,-0.545 1.394,-0.545Zm-0.023,0.864c-0.192,-0.006 -0.38,0.062 -0.523,0.19c-0.14,0.128 -0.232,0.315 -0.273,0.558l1.584,0c-0.052,-0.253 -0.146,-0.442 -0.281,-0.564c-0.139,-0.124 -0.321,-0.19 -0.507,-0.184Zm8.858,-0.864c0.593,0 1.028,0.196 1.307,0.587c0.278,0.393 0.417,0.857 0.417,1.391l0,0.312l-2.552,0c0.038,0.235 0.16,0.447 0.344,0.596c0.182,0.148 0.421,0.223 0.718,0.223c0.171,0 0.326,-0.023 0.464,-0.066c0.164,-0.055 0.324,-0.119 0.48,-0.192l0.297,0.733c-0.192,0.142 -0.411,0.243 -0.644,0.296c-0.202,0.055 -0.41,0.086 -0.62,0.093c-0.656,0 -1.173,-0.18 -1.55,-0.537c-0.377,-0.36 -0.566,-0.84 -0.566,-1.441c0,-0.603 0.17,-1.086 0.512,-1.45c0.34,-0.364 0.805,-0.545 1.393,-0.545Zm-0.024,0.864c-0.192,-0.006 -0.38,0.062 -0.523,0.19c-0.14,0.128 -0.231,0.315 -0.273,0.558l1.585,0c-0.053,-0.253 -0.146,-0.442 -0.281,-0.564c-0.14,-0.124 -0.321,-0.19 -0.508,-0.184Zm3.899,-0.823c0.974,0 1.603,0.502 1.603,1.26l-0,2.579l-1.027,0l-0,-0.561l-0.02,0c-0.215,0.385 -0.616,0.62 -1.111,0.62c-0.756,0 -1.265,-0.473 -1.265,-1.136l-0,-0.008c-0,-0.683 0.53,-1.083 1.465,-1.144l0.931,-0.055l-0,-0.231c-0,-0.335 -0.217,-0.541 -0.618,-0.541c-0.383,0 -0.615,0.18 -0.664,0.421l-0.007,0.03l-0.939,0l0.004,-0.04c0.056,-0.696 0.653,-1.194 1.648,-1.194Zm0.577,2.193l-0.777,0.049c-0.397,0.025 -0.605,0.192 -0.605,0.46l-0,0.007c-0,0.277 0.229,0.442 0.584,0.442c0.46,0 0.797,-0.294 0.797,-0.688l0.001,-0.27Zm4.212,0.607l-0,1.039l-1.04,0l-0,-1.039l1.04,0Zm-22.018,-4.26c0.515,0 0.934,0.114 1.257,0.34c0.322,0.225 0.484,0.607 0.484,1.14c-0,0.198 -0.046,0.376 -0.137,0.534c-0.09,0.16 -0.21,0.296 -0.355,0.41c0.24,0.125 0.436,0.294 0.59,0.506c0.153,0.213 0.23,0.483 0.23,0.81c-0,0.489 -0.171,0.871 -0.512,1.146c-0.34,0.275 -0.795,0.413 -1.362,0.413l-2.177,0l-0,-5.299l1.982,0Zm0.188,2.977l-1.163,0l-0,1.489l1.092,0c0.27,0 0.488,-0.063 0.652,-0.188c0.165,-0.125 0.257,-0.324 0.246,-0.53c-0,-0.25 -0.076,-0.44 -0.226,-0.572c-0.151,-0.132 -0.352,-0.199 -0.601,-0.199Zm-0.336,-2.135l-0.827,-0l-0,1.316l0.749,-0c0.281,-0 0.5,-0.053 0.66,-0.16c0.158,-0.105 0.238,-0.273 0.238,-0.501c-0,-0.25 -0.073,-0.422 -0.219,-0.515c-0.146,-0.093 -0.346,-0.14 -0.601,-0.14Zm8.85,-0.842c0.578,-0 1.072,0.133 1.483,0.398c0.411,0.265 0.617,0.675 0.617,1.231c-0,0.327 -0.085,0.609 -0.254,0.846c-0.168,0.235 -0.392,0.424 -0.652,0.549l1.304,2.275l-1.077,-0l-1.124,-2.025c-0.122,0.011 -0.244,0.016 -0.367,0.015l-0.585,-0l-0,2.01l-1.007,-0l-0,-5.299l1.662,0Zm-0.031,0.842l-0.624,0l-0,1.62l0.64,0c0.301,0 0.551,-0.06 0.749,-0.182c0.198,-0.122 0.296,-0.324 0.296,-0.604c-0,-0.297 -0.093,-0.51 -0.28,-0.639c-0.188,-0.13 -0.448,-0.195 -0.781,-0.195Zm11.795,-0.85l-0,5.307l-1.076,0l-0,-5.307l1.076,0Z"/></svg>
