<svg xmlns="http://www.w3.org/2000/svg" xml:space="preserve" width="512" height="512" style="fill-rule:evenodd;clip-rule:evenodd;stroke-linejoin:round;stroke-miterlimit:2"><path d="M170.064 389.241c-50.462-9.937-89.145-48.925-87.153-119.5 1.342-47.506 36.372-89.509 87.153-111.42V67.672c0-11.034 8.958-19.992 19.992-19.992h39.986c11.034 0 19.992 8.958 19.992 19.992v74.485c25.165.062 50.588 4.824 74.092 15.064 4.926-32.975 5.193-71.021-.94-114.084-2.942-20.656 11.44-39.813 32.095-42.755s39.813 11.439 42.755 32.094c9.895 69.475 5.45 128.385-7.962 177.097 38.268 51.694 56.614 139.018 16.687 275.249-5.868 20.022-26.887 31.513-46.909 25.645s-31.513-26.887-25.645-46.909c21.066-71.875 24.541-125.797 15.218-164.865-20.478 29.881-44.84 52.217-69.531 67.253-9.874 6.013-19.881 10.921-29.86 14.773v50.771c0 11.034-8.958 19.992-19.992 19.992h-39.986c-11.034 0-19.992-8.958-19.992-19.992zm0-142.751c-6.931 7.138-11.301 15.577-11.578 25.385-.463 16.41 3.036 29.001 11.578 36.4zm79.97 49.212c20.003-14.315 38.447-36.043 52.349-65.094-15.993-9.185-34.241-13.128-52.349-13.087z"/></svg>