<?xml version="1.0" encoding="UTF-8" standalone="no"?><!DOCTYPE svg PUBLIC "-//W3C//DTD SVG 1.1//EN" "http://www.w3.org/Graphics/SVG/1.1/DTD/svg11.dtd"><svg width="100%" height="100%" viewBox="0 0 24 24" version="1.1" xmlns="http://www.w3.org/2000/svg" xmlns:xlink="http://www.w3.org/1999/xlink" xml:space="preserve" xmlns:serif="http://www.serif.com/" style="fill-rule:evenodd;clip-rule:evenodd;stroke-linejoin:round;stroke-miterlimit:2;"><path d="M13.95,16.602C13.95,16.602 20.591,16.586 20.831,16.57C21.576,17.706 21.892,19.121 20.539,20.477C18.73,22.286 16.792,21.114 15.58,19.902L13.112,17.438L13.95,16.602ZM10.11,7.334L3.221,7.374C2.479,6.266 2.168,4.903 3.568,3.508C5.473,1.602 7.312,2.87 8.524,4.078L10.948,6.497L10.11,7.334ZM21.512,8.993C22.82,9.247 24,9.994 24,11.97C24,14.665 21.803,15.067 20.089,15.067L15.488,15.067C15.488,15.067 21.365,9.164 21.512,8.993ZM8.58,8.869C8.58,8.869 2.714,14.756 2.556,14.94C1.224,14.665 0,13.879 0,11.97C0,9.407 2.197,8.869 3.911,8.869L8.58,8.869ZM14.496,20.987C14.663,21.154 14.831,21.298 15.002,21.445C14.726,22.776 13.942,24 12.032,24C10.122,24 9.341,22.781 9.061,21.452C9.25,21.289 9.432,21.119 9.608,20.942L12.032,18.523L14.496,20.987ZM9.608,2.998L9.612,2.998C9.42,2.81 9.238,2.651 9.054,2.491C9.308,1.184 10.05,0 12.028,0C14.005,0 14.747,1.18 15.006,2.483C14.83,2.634 14.659,2.79 14.496,2.953L12.032,5.417L9.608,2.998ZM20.539,3.464C22.35,5.274 21.178,7.211 19.966,8.423L8.524,19.862C7.315,21.071 5.473,22.338 3.568,20.432C1.662,18.527 2.93,16.686 4.139,15.478L15.58,4.038C16.792,2.826 18.726,1.655 20.539,3.464Z"/></svg>
