<svg xmlns="http://www.w3.org/2000/svg" xml:space="preserve" style="fill-rule:evenodd;clip-rule:evenodd;stroke-linejoin:round;stroke-miterlimit:2" viewBox="0 0 24 24"><path d="M13.95 16.602s6.641-.016 6.881-.032c.745 1.136 1.061 2.551-.292 3.907-1.809 1.809-3.747.637-4.959-.575l-2.468-2.464zm-3.84-9.268-6.889.04c-.742-1.108-1.053-2.471.347-3.866 1.905-1.906 3.744-.638 4.956.57l2.424 2.419zm11.402 1.659C22.82 9.247 24 9.994 24 11.97c0 2.695-2.197 3.097-3.911 3.097h-4.601s5.877-5.903 6.024-6.074M8.58 8.869s-5.866 5.887-6.024 6.071C1.224 14.665 0 13.879 0 11.97c0-2.563 2.197-3.101 3.911-3.101zm5.916 12.118c.167.167.335.311.506.458-.276 1.331-1.06 2.555-2.97 2.555s-2.691-1.219-2.971-2.548q.283-.244.547-.51l2.424-2.419zM9.608 2.998h.004a12 12 0 0 0-.558-.507C9.308 1.184 10.05 0 12.028 0c1.977 0 2.719 1.18 2.978 2.483a9 9 0 0 0-.51.47l-2.464 2.464zm10.931.466c1.811 1.81.639 3.747-.573 4.959L8.524 19.862c-1.209 1.209-3.051 2.476-4.956.57-1.906-1.905-.638-3.746.571-4.954L15.58 4.038c1.212-1.212 3.146-2.383 4.959-.574"/></svg>